<?xml version="1.0" encoding="utf-8"?>
<!-- Generator: Adobe Illustrator 26.0.3, SVG Export Plug-In . SVG Version: 6.00 Build 0)  -->
<svg version="1.1" xmlns="http://www.w3.org/2000/svg" xmlns:xlink="http://www.w3.org/1999/xlink" x="0px" y="0px"
	 viewBox="0 0 243.6 400" style="enable-background:new 0 0 243.6 400;" xml:space="preserve">
<style type="text/css">
	.st0{display:none;}
	.st1{display:inline;}
	.st2{fill:#009FE3;}
	.st3{fill:#FFFFFF;}
</style>
<g id="Capa_1" class="st0">
	<g id="ada2da3f-ead0-466f-82d6-532381aafc36" class="st1">
		<path class="st2" d="M70,154.3H55.1c-28.6,0-51.8-23.2-51.8-51.8V57.9c0-28.6,23.2-51.8,51.8-51.8H70c28.6,0,51.8,23.2,51.8,51.8
			v44.6C121.8,131.1,98.6,154.3,70,154.3z M55.1,25.8c-17.7,0-32.1,14.4-32.1,32.1v44.6c0,17.7,14.4,32.1,32.1,32.1h14.9
			c17.7,0,32.1-14.4,32.1-32.1V57.9c0-17.7-14.4-32.1-32.1-32.1L55.1,25.8z M-6.6,272.8h-19.8v118.5h19.8V272.8z M141.6,272.8h-19.8
			v118.5h19.8V272.8z M291.4,203.6h-82.3c-15.4,0-27.9-12.5-28-28v-72.5c0-15.4,12.5-27.9,28-28h82.3c15.4,0,27.9,12.5,28,28v72.5
			C319.4,191.1,306.9,203.6,291.4,203.6L291.4,203.6z M209.1,95c-4.5,0-8.2,3.7-8.2,8.2v72.5c0,4.5,3.7,8.2,8.2,8.2h82.3
			c4.5,0,8.2-3.7,8.2-8.2v-72.5c0-4.5-3.7-8.2-8.2-8.2H209.1z M289.7,42.6c0-21.2-13.8-36.6-32.8-36.6h-13.4
			c-19,0-32.8,15.4-32.8,36.6v22.7h19.8V42.6c0-2.8,0.6-16.8,13-16.8H257c12.4,0,13,14,13,16.8v22.7h19.8V42.6z M266,130.5
			c0-8.7-7.1-15.8-15.8-15.8s-15.8,7.1-15.8,15.8c0,4.5,1.9,8.7,5.3,11.7v14.6c0,5.8,4.7,10.5,10.5,10.5s10.5-4.7,10.5-10.5v-14.6
			C264.1,139.3,266,135,266,130.5z M191,254.3c-0.1-44.3-36-80.2-80.3-80.3H4.6c-44.3,0-80.3,36-80.3,80.3v135.8H-56V254.3
			c0.1-33.4,27.1-60.5,60.5-60.5h106.1c33.4,0.1,60.5,27.1,60.5,60.5v135.8H191V254.3z"/>
	</g>
</g>
<g id="Capa_3">
	<g id="f4cc56e4-9559-4600-9718-06b2a9dac2a5">
		<path class="st2" d="M101.2,308.4c27.2,0,49.2-22,49.2-49.2v-59.8c33.9-4.9,59-33.9,59.1-68.1V91.9c0-5.4-4.4-9.8-9.8-9.8l0,0
			h-29.5v19.7h19.7v29.5c0,27.2-22,49.2-49.2,49.2s-49.2-22-49.2-49.2v-29.5H111V82.1H81.5c-5.4,0-9.8,4.4-9.8,9.8l0,0v39.4
			c0.1,34.2,25.2,63.2,59.1,68.1v59.8c0,16.3-13.2,29.5-29.5,29.5s-29.5-13.2-29.5-29.5v-21.5c15.4-5.4,23.4-22.3,18-37.7
			c-5.4-15.4-22.3-23.4-37.7-18s-23.4,22.3-18,37.7c3,8.4,9.6,15,18,18v21.5C52,286.4,74,308.4,101.2,308.4z M61.8,200.2
			c5.4,0,9.8,4.4,9.8,9.8c0,5.4-4.4,9.8-9.8,9.8S52,215.5,52,210C52,204.6,56.4,200.2,61.8,200.2L61.8,200.2z M160.2,366.6H91.3
			v-19.7h68.9V366.6z M239,61.5V38.2c0-19.2-15.6-34.8-34.9-34.9H37.6C18.4,3.4,2.8,19,2.7,38.2v323.9c0,19.2,15.6,34.8,34.9,34.9
			H204c19.3,0,34.9-15.6,34.9-34.9V91h-19.7v226.4H22.4V71.4h206.7C234.6,71.4,239,67,239,61.5L239,61.5z M219.3,337.1v25
			c0,8.4-6.8,15.2-15.2,15.2H37.6c-8.4,0-15.2-6.8-15.2-15.2v-25H219.3z M219.3,51.7H22.4V38.2c0-8.4,6.8-15.2,15.2-15.2H204
			c8.4,0,15.2,6.8,15.2,15.2L219.3,51.7L219.3,51.7z"/>
	</g>
</g>
<g id="Capa_2" class="st0">
	<g class="st1">
		<path class="st3" d="M-57.1,244.1c-10.2,1.4-20.6,9.2-20.9,20.2c-0.2,5.9,4.2,10.9,8,14.9c2.7,2.9,5.9,5.5,7.9,9
			c3.4,5.7-3.7,8.6-7.8,9.4c-2.3,0.5-1.3,3.9,1,3.5c4.1-0.8,9.1-2.6,10.6-7c2-6-2.2-10.4-6.2-14.5c-5.3-5.4-11.7-11.1-9.3-19.3
			c2-6.8,9.9-11.7,16.6-12.6C-54.9,247.4-54.8,243.8-57.1,244.1z"/>
		<path class="st3" d="M-36,284.3c0.1-2,0.2-4-0.3-5.8c0-0.3-0.1-0.5-0.2-0.7c-0.3-1-0.9-1.9-1.7-2.6c-3.6-3.5-10.5-0.8-13.5,2.2
			c-3.3,3.3-6.7,11.2-0.7,13.4c2.9,1.1,7.1-1.6,9.3-3.2c1.2-0.9,2.5-2.1,3.5-3.3c0,0,0,0.1,0,0.1c-0.2,4.8-0.1,9.6,0.4,14.4
			c0.2,2.3,3.9,2.3,3.6,0C-36.1,293.9-36.2,289.1-36,284.3z M-51,287.2c-2.8,0.4,0.7-5.9,1.1-6.4c1-1.4,2.3-2.3,3.9-2.9
			c1.5-0.6,3.4-1,5-0.3c0.4,0.2,0.7,0.5,1,0.9C-41.8,282.5-46.7,286.6-51,287.2z"/>
		<path class="st3" d="M-24.2,280.9c-0.4-5.7-0.2-11.4,0.1-17.1c0.5-9.6,1.2-19,0.3-28.5c-0.2-2.3-3.8-2.3-3.6,0
			c1,10.7,0.1,21.3-0.5,32c-0.3,6.3,0,12.5,0.5,18.8c0.4,4.5,1,9,4.2,12.4c1.6,1.7,4.1-0.9,2.6-2.6
			C-24.2,292.1-23.8,285.7-24.2,280.9z"/>
		<path class="st3" d="M4.9,276c-0.1-1.9-3.2-2.6-3.5-0.5c-0.6,4-2.2,7.1-4.6,10.2c-1.3,1.6-5.2,5.5-7,2.5c-1.8-2.9,0-9.4,2.1-11.8
			c1.5-1.8-1-4.3-2.6-2.6c-3.4,4.1-5.7,13.4-1.5,17.6c2.8,2.9,7.2,0.8,9.7-1.3c1.9-1.6,3.5-3.7,4.8-6c0.4,2.3,0.9,4.6,1.8,6.8
			c0.8,2.2,4.3,1.2,3.5-1C5.7,285.5,5.2,280.9,4.9,276z"/>
		<path class="st3" d="M29.3,273.9c-0.7-7.6-0.9-18.1,2.4-25.1c1-2.1-2.1-3.9-3.1-1.8c-3.4,7.1-3.4,16.4-3.1,24.3
			c-0.1,0.2-0.2,0.3-0.3,0.6c0,0.1,0,0.2-0.1,0.3c-4.5,0.7-8.3,4.9-11,8.3c-3.1,3.9-4.5,9.2-1.2,13.4c3.2,4.2,8.2,0,10.3-2.8
			c1.9-2.6,2.9-5.6,3.7-8.7c1.2,5.2,3.2,10.3,5.7,15c1.1,2.1,4.2,0.2,3.1-1.8C32.1,288.7,30,281.5,29.3,273.9z M19,290.7
			c-2.8,3.3-4.6-0.9-4.2-3.4c0.3-1.9,1.6-3.7,2.7-5.1c1.5-1.8,4.3-5,7-6.1C23.5,281.2,22.5,286.5,19,290.7z"/>
		<path class="st3" d="M82.6,331.2c-0.5-5.6-0.9-11.3-1.2-16.9c-0.8-13.1-0.2-26-0.3-39.1c0-0.5-0.2-0.9-0.5-1.2
			c0.8-1.9-2.1-3.6-3.2-1.6c-2.3,4.3-5.4,7.9-9.5,10.7c-1,0.7-2.3,1.4-3.5,1.2c-1.4-0.2-1.2-2.6-1.1-3.6c0.1-2.1,0.9-4.2,1.4-6.2
			c0.5-2.3-3-3.2-3.5-1c-0.9,3.8-4,14.6,3.4,14.4c5.1-0.1,9.6-4.5,12.9-8.9c0,12.1-0.4,24.1,0.4,36.2c0.4,5.9,0.8,11.8,1.3,17.6
			c0.3,3.1,0.1,7.1,1.5,10c1,2.1,4.1,0.3,3.1-1.8C82.7,338.9,82.8,334,82.6,331.2z"/>
		<path class="st3" d="M115.6,253.9c0.1-2.3-3.5-2.3-3.6,0c-0.8,16.2-1.1,32.4,1.3,48.5c0.3,2.3,3.8,1.3,3.5-1
			C114.4,285.6,114.8,269.7,115.6,253.9z"/>
		<path class="st3" d="M137.2,271c-4.2-2.6-8.3-2.5-12.5-1.8c1-0.7,2-1.3,2.9-2c3.2-2.5,6.3-5.2,9.5-7.7c2.5-2,8.3-6.7,4.6-10.3
			c-4.3-4.3-11.9-4.3-17.5-3.5c-7.5,1-14.4,3.5-20.9,7.4c-2,1.2-0.2,4.3,1.8,3.1c8.8-5.4,22.6-10.4,32.7-5.6
			c3.4,1.6-2.8,5.8-3.7,6.5c-2.2,1.7-4.3,3.5-6.4,5.2c-3.6,3-8.5,5.3-11.3,9.2c-1,1.4,0.6,3,2,2.7c5.5-1.2,10.2-3.1,15.8-0.8
			c4.7,2,6.8,6.4,5.3,11.2c-2.3,7.1-12.2,11.8-18.8,13.6c-2.2,0.6-1.3,4.1,1,3.5c8.5-2.3,20.6-8.7,21.9-18.5
			C144.4,278,141.7,273.7,137.2,271z"/>
		<path class="st3" d="M154.2,272.8c0-2.3-3.6-2.3-3.6,0c0,4.2-0.6,8.4-0.5,12.7c0.1,4.3,1.2,8.6,2.4,12.7c0.7,2.2,4.2,1.3,3.5-1
			C153.4,288.8,154.1,281.4,154.2,272.8z"/>
		<path class="st3" d="M157.1,259.7c0-0.5-0.1-1-0.5-1.4c-0.7-0.7-1.9-0.7-2.6,0c-0.8,0.9-1.4,2.1-1.3,3.4c0,1.5,1.5,3.1,3.1,2.5
			c1.2-0.5,1.9-1.5,2-2.8C157.9,260.7,157.6,260.1,157.1,259.7z"/>
		<path class="st3" d="M179.6,296.1c-2.8,2.6-5.8,4.8-9.8,3c-3.1-1.4-3.5-5.7-3.5-8.7c0-0.3,0-0.6,0.1-0.9
			c5.7-4.3,10.5-9.9,12.9-16.7c0.6-1.6,0.5-4.4-1.6-4.9c-3-0.8-5.4,2-7.2,4c-4.1,4.5-6.8,10.1-7.5,16.1c-0.1,0.3-0.1,0.6-0.1,0.9
			c-0.2,2.2-0.1,4.5,0.4,6.8c0.8,4,3.9,6.7,7.7,7.7c4.2,1.1,8.3-2,11.2-4.7C183.9,297,181.3,294.5,179.6,296.1z M173.1,274.5
			c0.9-1.1,3.1-2.5,3-3.5c0.1,1.6-1.5,3.7-2.3,5c-1.8,3.1-3.9,5.6-6.4,8C168.7,280.4,170.7,277.2,173.1,274.5z"/>
		<path class="st3" d="M194.8,277.8c-2.8-0.7-5.7,1.7-7.6,3.4c-1.2,1-2.1,2.1-2.9,3.3c0-0.2,0-0.3,0-0.5c0-2.3-3.6-2.3-3.6,0
			c0,2.6-0.2,5.1-0.6,7.7c-0.3,2,2.1,3.2,3.3,1.4c2.5-3.8,4.9-11,10.4-11.7c2.8-0.3,3.3,7.4,3.3,9.1c0,2.3,3.6,2.3,3.6,0
			C200.6,286.1,199.7,279.1,194.8,277.8z"/>
		<path class="st3" d="M223.4,297.5c-5,2.5-11,2.5-12.8-3.8c-0.3-1-0.4-2.1-0.4-3.2c0.4,0,0.9-0.1,1.3-0.5c3.6-3.2,6.4-6.8,9-10.8
			c1.6-2.4,3.5-5.1,3.6-8c0-2.3-2.8-3.4-4.6-2.6c-3.3,1.4-5.6,4.4-7.6,7.2c-3.9,5.5-7.4,14.9-3.9,21.3c3.6,6.6,11.2,6.4,17.2,3.4
			C227.4,299.6,225.5,296.5,223.4,297.5z M214.4,278.8c1.1-1.9,2.5-3.5,4.1-5.1c2.9-2.8,1.6-0.5,0.4,1.5c-2.2,3.7-4.7,7.1-7.7,10.2
			C212,283,213.2,280.7,214.4,278.8z"/>
		<path class="st3" d="M239,271c-4.4,0.1-9.1,4.1-10.6,8.2c-0.7,2-0.7,3.6,0.3,5.4c0.5,0.8,1.4,1.4,2.1,1.9c0.8,0.5,1.5,1,2.2,1.5
			c2.4,1.9-0.5,5.7-1.6,7.3c-1.3,1.9,1.8,3.8,3.1,1.8c2.5-3.8,4.4-7.9,1-11.7c-1.7-1.9-5.2-2.4-3.5-5.8c1.2-2.3,4.2-5,6.8-5.1
			C241.3,274.6,241.3,270.9,239,271z"/>
		<path class="st3" d="M272,284.7c-1.7,5.1-4.3,12-11,10.8c-6.8-1.2-6.3-10.5-6-16c1.1-0.2,2.3-0.4,3.4-0.5c2.3-0.3,2.3-3.9,0-3.6
			c-1.1,0.1-2.1,0.3-3.2,0.5c0.8-12.2,3.9-24.2,3.5-36.5c-0.1-2.3-3.7-2.3-3.6,0c0.3,9.4-1.6,18.6-2.8,27.9c-0.4,2.9-0.8,6-1,9.1
			c-2.6,0.4-5.1,0.9-7.7,1.3c-2.3,0.4-1.3,3.9,1,3.5c2.2-0.4,4.3-0.8,6.5-1.2c-0.1,3.7,0.1,7.4,1,10.9c1.5,5.7,7,8.8,12.5,8
			c6.3-0.9,9.1-8.2,10.8-13.4C276.2,283.4,272.7,282.5,272,284.7z"/>
		<path class="st3" d="M296.2,282.6c1.8-1.4,0.1-4.4-1.7-3.2c-2.6-5-7.8-4.7-11.9-1.2c-3.9,3.3-6.8,10.9-3,15.1
			c2.7,2.9,8.8-2.9,12.9-7.1c0.4,2.1,0.5,4.1,0.5,5.2c0.1,3.7,0.1,7.4,0,11c-0.1,2.3,3.5,2.3,3.6,0c0.2-6.2,0.8-13.3-0.9-19.5
			C295.9,282.8,296.1,282.6,296.2,282.6z M285.6,287.4c-1,0.8-1.9,1.5-3,2.3c-1.9,1.3-0.9-3-0.8-3.4c0.5-2.2,1.7-3.9,3.2-5.4
			c3.1-3.2,5.1-1.7,6.3,1.2C289.4,283.7,287.6,285.6,285.6,287.4z"/>
		<path class="st3" d="M316.8,268.8c-4.9,0.9-8.5,5.1-10.8,10.1c-0.1-0.4-0.1-0.9-0.2-1.3c-0.4-2.3-3.9-1.3-3.5,1
			c0.9,4.5,0.6,9.1,0.6,13.7c0,2.3,3.6,2.3,3.6,0c0.1-6.7,3.6-18.6,11.2-20C320,271.9,319.1,268.4,316.8,268.8z"/>
		<path class="st2" d="M-57.3,244.1c-10.2,1.4-20.6,9.2-20.9,20.2c-0.2,5.9,4.2,10.9,8,14.9c2.7,2.9,5.9,5.5,7.9,9
			c3.4,5.7-3.7,8.6-7.8,9.4c-2.3,0.5-1.3,3.9,1,3.5c4.1-0.8,9.1-2.6,10.6-7c2-6-2.2-10.4-6.2-14.5c-5.3-5.4-11.7-11.1-9.3-19.3
			c2-6.8,9.9-11.7,16.6-12.6C-55,247.4-54.9,243.8-57.3,244.1z"/>
		<path class="st2" d="M-36.1,284.3c0.1-2,0.2-4-0.3-5.8c0-0.3-0.1-0.5-0.2-0.7c-0.3-1-0.9-1.9-1.7-2.6c-3.6-3.5-10.5-0.8-13.5,2.2
			c-3.3,3.3-6.7,11.2-0.7,13.4c2.9,1.1,7.1-1.6,9.3-3.2c1.2-0.9,2.5-2.1,3.5-3.3c0,0,0,0.1,0,0.1c-0.2,4.8-0.1,9.6,0.4,14.4
			c0.2,2.3,3.9,2.3,3.6,0C-36.2,293.9-36.3,289.1-36.1,284.3z M-51.1,287.2c-2.8,0.4,0.7-5.9,1.1-6.4c1-1.4,2.3-2.3,3.9-2.9
			c1.5-0.6,3.4-1,5-0.3c0.4,0.2,0.7,0.5,1,0.9C-41.9,282.5-46.8,286.6-51.1,287.2z"/>
		<path class="st2" d="M-24.3,280.9c-0.4-5.7-0.2-11.4,0.1-17.1c0.5-9.6,1.2-19,0.3-28.5c-0.2-2.3-3.8-2.3-3.6,0
			c1,10.7,0.1,21.3-0.5,32c-0.3,6.3,0,12.5,0.5,18.8c0.4,4.5,1,9,4.2,12.4c1.6,1.7,4.1-0.9,2.6-2.6
			C-24.3,292.1-23.9,285.7-24.3,280.9z"/>
		<path class="st2" d="M4.8,276c-0.1-1.9-3.2-2.6-3.5-0.5c-0.6,4-2.2,7.1-4.6,10.2c-1.3,1.6-5.2,5.5-7,2.5c-1.8-2.9,0-9.4,2.1-11.8
			c1.5-1.8-1-4.3-2.6-2.6c-3.4,4.1-5.7,13.4-1.5,17.6c2.8,2.9,7.2,0.8,9.7-1.3c1.9-1.6,3.5-3.7,4.8-6c0.4,2.3,0.9,4.6,1.8,6.8
			c0.8,2.2,4.3,1.2,3.5-1C5.6,285.5,5.1,280.9,4.8,276z"/>
		<path class="st2" d="M29.2,273.9c-0.7-7.6-0.9-18.1,2.4-25.1c1-2.1-2.1-3.9-3.1-1.8c-3.4,7.1-3.4,16.4-3.1,24.3
			c-0.1,0.2-0.2,0.3-0.3,0.6c0,0.1,0,0.2-0.1,0.3c-4.5,0.7-8.3,4.9-11,8.3c-3.1,3.9-4.5,9.2-1.2,13.4c3.2,4.2,8.2,0,10.3-2.8
			c1.9-2.6,2.9-5.6,3.7-8.7c1.2,5.2,3.2,10.3,5.7,15c1.1,2.1,4.2,0.2,3.1-1.8C32,288.7,29.9,281.5,29.2,273.9z M18.9,290.7
			c-2.8,3.3-4.6-0.9-4.2-3.4c0.3-1.9,1.6-3.7,2.7-5.1c1.5-1.8,4.3-5,7-6.1C23.4,281.2,22.4,286.5,18.9,290.7z"/>
		<path class="st2" d="M82.5,331.2c-0.5-5.6-0.9-11.3-1.2-16.9c-0.8-13.1-0.2-26-0.3-39.1c0-0.5-0.2-0.9-0.5-1.2
			c0.8-1.9-2.1-3.6-3.2-1.6c-2.3,4.3-5.4,7.9-9.5,10.7c-1,0.7-2.3,1.4-3.5,1.2c-1.4-0.2-1.2-2.6-1.1-3.6c0.1-2.1,0.9-4.2,1.4-6.2
			c0.5-2.3-3-3.2-3.5-1c-0.9,3.8-4,14.6,3.4,14.4c5.1-0.1,9.6-4.5,12.9-8.9c0,12.1-0.4,24.1,0.4,36.2c0.4,5.9,0.8,11.8,1.3,17.6
			c0.3,3.1,0.1,7.1,1.5,10c1,2.1,4.1,0.3,3.1-1.8C82.6,338.9,82.7,334,82.5,331.2z"/>
		<path class="st2" d="M115.5,253.9c0.1-2.3-3.5-2.3-3.6,0c-0.8,16.2-1.1,32.4,1.3,48.5c0.3,2.3,3.8,1.3,3.5-1
			C114.3,285.6,114.7,269.7,115.5,253.9z"/>
		<path class="st2" d="M137.1,271c-4.2-2.6-8.3-2.5-12.5-1.8c1-0.7,2-1.3,2.9-2c3.2-2.5,6.3-5.2,9.5-7.7c2.5-2,8.3-6.7,4.6-10.3
			c-4.3-4.3-11.9-4.3-17.5-3.5c-7.5,1-14.4,3.5-20.9,7.4c-2,1.2-0.2,4.3,1.8,3.1c8.8-5.4,22.6-10.4,32.7-5.6
			c3.4,1.6-2.8,5.8-3.7,6.5c-2.2,1.7-4.3,3.5-6.4,5.2c-3.6,3-8.5,5.3-11.3,9.2c-1,1.4,0.6,3,2,2.7c5.5-1.2,10.2-3.1,15.8-0.8
			c4.7,2,6.8,6.4,5.3,11.2c-2.3,7.1-12.2,11.8-18.8,13.6c-2.2,0.6-1.3,4.1,1,3.5c8.5-2.3,20.6-8.7,21.9-18.5
			C144.3,278,141.6,273.7,137.1,271z"/>
		<path class="st2" d="M154.1,272.8c0-2.3-3.6-2.3-3.6,0c0,4.2-0.6,8.4-0.5,12.7c0.1,4.3,1.2,8.6,2.4,12.7c0.7,2.2,4.2,1.3,3.5-1
			C153.3,288.8,154,281.4,154.1,272.8z"/>
		<path class="st2" d="M157,259.7c0-0.5-0.1-1-0.5-1.4c-0.7-0.7-1.9-0.7-2.6,0c-0.8,0.9-1.4,2.1-1.3,3.4c0,1.5,1.5,3.1,3.1,2.5
			c1.2-0.5,1.9-1.5,2-2.8C157.8,260.7,157.5,260.1,157,259.7z"/>
		<path class="st2" d="M179.5,296.1c-2.8,2.6-5.8,4.8-9.8,3c-3.1-1.4-3.5-5.7-3.5-8.7c0-0.3,0-0.6,0.1-0.9
			c5.7-4.3,10.5-9.9,12.9-16.7c0.6-1.6,0.5-4.4-1.6-4.9c-3-0.8-5.4,2-7.2,4c-4.1,4.5-6.8,10.1-7.5,16.1c-0.1,0.3-0.1,0.6-0.1,0.9
			c-0.2,2.2-0.1,4.5,0.4,6.8c0.8,4,3.9,6.7,7.7,7.7c4.2,1.1,8.3-2,11.2-4.7C183.8,297,181.2,294.5,179.5,296.1z M173,274.5
			c0.9-1.1,3.1-2.5,3-3.5c0.1,1.6-1.5,3.7-2.3,5c-1.8,3.1-3.9,5.6-6.4,8C168.6,280.4,170.6,277.2,173,274.5z"/>
		<path class="st2" d="M194.7,277.8c-2.8-0.7-5.7,1.7-7.6,3.4c-1.2,1-2.1,2.1-2.9,3.3c0-0.2,0-0.3,0-0.5c0-2.3-3.6-2.3-3.6,0
			c0,2.6-0.2,5.1-0.6,7.7c-0.3,2,2.1,3.2,3.3,1.4c2.5-3.8,4.9-11,10.4-11.7c2.8-0.3,3.3,7.4,3.3,9.1c0,2.3,3.6,2.3,3.6,0
			C200.5,286.1,199.6,279.1,194.7,277.8z"/>
		<path class="st2" d="M223.3,297.5c-5,2.5-11,2.5-12.8-3.8c-0.3-1-0.4-2.1-0.4-3.2c0.4,0,0.9-0.1,1.3-0.5c3.6-3.2,6.4-6.8,9-10.8
			c1.6-2.4,3.5-5.1,3.6-8c0-2.3-2.8-3.4-4.6-2.6c-3.3,1.4-5.6,4.4-7.6,7.2c-3.9,5.5-7.4,14.9-3.9,21.3c3.6,6.6,11.2,6.4,17.2,3.4
			C227.3,299.6,225.4,296.5,223.3,297.5z M214.3,278.8c1.1-1.9,2.5-3.5,4.1-5.1c2.9-2.8,1.6-0.5,0.4,1.5c-2.2,3.7-4.7,7.1-7.7,10.2
			C211.9,283,213.1,280.7,214.3,278.8z"/>
		<path class="st2" d="M238.9,271c-4.4,0.1-9.1,4.1-10.6,8.2c-0.7,2-0.7,3.6,0.3,5.4c0.5,0.8,1.4,1.4,2.1,1.9c0.8,0.5,1.5,1,2.2,1.5
			c2.4,1.9-0.5,5.7-1.6,7.3c-1.3,1.9,1.8,3.8,3.1,1.8c2.5-3.8,4.4-7.9,1-11.7c-1.7-1.9-5.2-2.4-3.5-5.8c1.2-2.3,4.2-5,6.8-5.1
			C241.2,274.6,241.2,270.9,238.9,271z"/>
		<path class="st2" d="M271.9,284.7c-1.7,5.1-4.3,12-11,10.8c-6.8-1.2-6.3-10.5-6-16c1.1-0.2,2.3-0.4,3.4-0.5c2.3-0.3,2.3-3.9,0-3.6
			c-1.1,0.1-2.1,0.3-3.2,0.5c0.8-12.2,3.9-24.2,3.5-36.5c-0.1-2.3-3.7-2.3-3.6,0c0.3,9.4-1.6,18.6-2.8,27.9c-0.4,2.9-0.8,6-1,9.1
			c-2.6,0.4-5.1,0.9-7.7,1.3c-2.3,0.4-1.3,3.9,1,3.5c2.2-0.4,4.3-0.8,6.5-1.2c-0.1,3.7,0.1,7.4,1,10.9c1.5,5.7,7,8.8,12.5,8
			c6.3-0.9,9.1-8.2,10.8-13.4C276.1,283.4,272.6,282.5,271.9,284.7z"/>
		<path class="st2" d="M296.1,282.6c1.8-1.4,0.1-4.4-1.7-3.2c-2.6-5-7.8-4.7-11.9-1.2c-3.9,3.3-6.8,10.9-3,15.1
			c2.7,2.9,8.8-2.9,12.9-7.1c0.4,2.1,0.5,4.1,0.5,5.2c0.1,3.7,0.1,7.4,0,11c-0.1,2.3,3.5,2.3,3.6,0c0.2-6.2,0.8-13.3-0.9-19.5
			C295.8,282.8,296,282.6,296.1,282.6z M285.5,287.4c-1,0.8-1.9,1.5-3,2.3c-1.9,1.3-0.9-3-0.8-3.4c0.5-2.2,1.7-3.9,3.2-5.4
			c3.1-3.2,5.1-1.7,6.3,1.2C289.3,283.7,287.5,285.6,285.5,287.4z"/>
		<path class="st2" d="M316.7,268.8c-4.9,0.9-8.5,5.1-10.8,10.1c-0.1-0.4-0.1-0.9-0.2-1.3c-0.4-2.3-3.9-1.3-3.5,1
			c0.9,4.5,0.6,9.1,0.6,13.7c0,2.3,3.6,2.3,3.6,0c0.1-6.7,3.6-18.6,11.2-20C319.9,271.9,319,268.4,316.7,268.8z"/>
		<path class="st2" d="M305.8,55.2H-65c-8.3,23.3-13.1,52.1-13.1,83.3s4.9,60,13.1,83.3h370.8c8.3-23.3,13.1-52.1,13.1-83.3
			S314.1,78.5,305.8,55.2z"/>
		<path class="st3" d="M112.6,127.5C98.8,127.5,92,140,92,149.5c0,9.5,6.9,21.9,23.3,21.9c4.2,0,7.6-0.8,9.6-1.5l5.5-8l-1-1.2
			c-3,2.2-6.9,3.2-10.6,3.2c-10.4,0-17.6-9.1-16.9-19.1h29.4C131.1,134.1,123,127.5,112.6,127.5z M102.1,140.8
			c-0.2-5.2,3.3-9.8,8.8-9.8c6.6,0,9.4,3.8,9.4,9.8H102.1z M87.6,163.2c-2.3,0-3.1-2-3.1-5.7v-25.2c0-14.6,0.4-25.9,0.4-33.8h-2
			c-2.5,2.8-8.6,5.7-13.6,7v2c2.6,0.4,5.2,1.8,5.2,7.5v15c-3.5-1.6-6.9-2.5-10.3-2.5c-13,0-22.5,8.1-22.5,22.1
			c0,12.2,8.1,21.7,20.4,21.7c3.4,0,5.4-0.5,7.1-1.5l5.9-5.1c1.6,3,4.5,5.6,7.7,6.7c1.9-2.4,5.7-5.2,9.2-7.5l-1.5-1.5
			C89.8,162.8,89,163.2,87.6,163.2z M74.7,161.8c-2.6,2.5-5.3,3.5-8.2,3.5c-8.8,0-13.9-9.9-13.9-18.3c0-6.9,3.2-15.5,11.2-15.5
			c8,0,10.8,4,10.8,13.7V161.8z M144.3,138c0-4.2,2.9-6.4,7-6.4c5.5,0,8.3,2.5,9.4,7.7h3.2l0.4-9.1c-4.3-1.3-8.5-2.6-12.9-2.6
			c-8.3,0-16,4-16,13.4c0,14.4,20.8,12.8,20.8,20.2c0,3.9-3.3,6.3-7.1,6.3c-4.5,0-8.5-3.4-9.5-8.3H136l0.6,9.4
			c3,1.9,8.2,2.9,11.7,2.9c8.7,0,16.1-3.9,16.1-13.5C164.4,144,144.3,147.7,144.3,138z M34.8,155.5L12.7,98.6h-1.2L-10.1,153
			c-1.9,4.9-5.8,14.4-9.8,15.2v2.2c2.9,0,5.8-0.4,8.7-0.4c2.9,0,5.8,0.4,8.7,0.4v-2.2c-2.4,0-3.6-1.9-3.6-4.3c0-1.1,0.2-3.3,0.7-5.1
			l2.7-8.9h23.8l3.5,9.4c0.7,2,1.2,3.7,1.2,5.1c0,2.3-1.2,3.7-3.3,3.7v2.2c3.4,0,6.8-0.4,10.2-0.4c3.4,0,6.8,0.4,10.2,0.4v-2.2
			C39.3,167.8,38.4,164.4,34.8,155.5z M-0.8,145l9.8-26.6L19.3,145H-0.8z M183.3,162.5v-39.2c0-9.3,0.3-19.2,0.4-24.7h-2
			c-2.6,2.8-10.6,5.7-14.2,6.2v2.3c3.2,0,5,2.4,5.2,6.6c0.3,3.8,0.8,11.4,0.8,17.3v32.8c0,2.2-0.8,4-4,4.5v2c2.9,0,5.8-0.3,8.7-0.3
			c3,0,6.1,0.3,9.1,0.3v-2C184.1,167.8,183.3,166,183.3,162.5z M240.6,138c0-4.2,2.9-6.4,7-6.4c5.5,0,8.3,2.5,9.4,7.7h3.2l0.4-9.1
			c-4.2-1.3-8.5-2.6-12.8-2.6c-8.3,0-16,4-16,13.4c0,14.4,20.8,12.8,20.8,20.2c0,3.9-3.3,6.3-7.1,6.3c-4.6,0-8.5-3.4-9.5-8.3h-3.7
			l0.6,9.4c3,1.9,8.2,2.9,11.7,2.9c8.7,0,16.1-3.9,16.1-13.5C260.8,144,240.6,147.7,240.6,138z M226.1,164.2c-2.2,0-3-1.3-3-6v-3.5
			c0.1-5.8,0.4-11,0.4-14.7c0-10.1-7.7-12.5-16.7-12.5c-4.7,0-8.8,0.6-13,1.8v9.6h2.4c2.5-3.8,5.1-5.4,10-5.4
			c6.9,0,7.3,6.1,7.3,11.5c-1.4,0-3.1-0.3-4.7-0.3c-9.2,0-19.4,4.1-19.4,14.9c0,7.5,6.8,11.7,13.7,11.7c4.4,0,7.7-2.4,11.1-5
			c1.2,2.5,4.2,4.4,8.1,5l7.6-6.1l-1.5-1.5C227.5,164.1,226.6,164.2,226.1,164.2z M207,165.4c-4.2,0-7.9-3.5-7.9-8.2
			c0-6.5,4.9-8.9,9.5-8.9c1.8,0,3.7,0.3,4.8,0.5l0.3,14.9C212.1,164.7,210.1,165.4,207,165.4z"/>
	</g>
</g>
</svg>
