<?xml version="1.0" encoding="utf-8"?>
<!-- Generator: Adobe Illustrator 26.0.3, SVG Export Plug-In . SVG Version: 6.00 Build 0)  -->
<svg version="1.1" xmlns="http://www.w3.org/2000/svg" xmlns:xlink="http://www.w3.org/1999/xlink" x="0px" y="0px"
	 viewBox="0 0 400 400" style="enable-background:new 0 0 400 400;" xml:space="preserve">
<style type="text/css">
	.st0{fill:#009FE3;}
	.st1{display:none;}
	.st2{display:inline;}
	.st3{fill:#FFFFFF;}
</style>
<g id="Capa_1">
	<g id="ada2da3f-ead0-466f-82d6-532381aafc36">
		<path class="st0" d="M149,154.3H134c-28.6,0-51.8-23.2-51.8-51.8V57.9c0-28.6,23.2-51.8,51.8-51.8H149c28.6,0,51.8,23.2,51.8,51.8
			v44.6C200.8,131.1,177.6,154.3,149,154.3z M134.1,25.8c-17.7,0-32.1,14.4-32.1,32.1v44.6c0,17.7,14.4,32.1,32.1,32.1h14.9
			c17.7,0,32.1-14.4,32.1-32.1V57.9c0-17.7-14.4-32.1-32.1-32.1L134.1,25.8z M72.4,272.8H52.7v118.5h19.8V272.8z M220.6,272.8h-19.8
			v118.5h19.8V272.8z M370.4,203.6h-82.3c-15.4,0-27.9-12.5-28-28v-72.5c0-15.4,12.5-27.9,28-28h82.3c15.4,0,27.9,12.5,28,28v72.5
			C398.4,191.1,385.8,203.6,370.4,203.6L370.4,203.6z M288.1,95c-4.5,0-8.2,3.7-8.2,8.2v72.5c0,4.5,3.7,8.2,8.2,8.2h82.3
			c4.5,0,8.2-3.7,8.2-8.2v-72.5c0-4.5-3.7-8.2-8.2-8.2H288.1z M368.7,42.6c0-21.2-13.8-36.6-32.8-36.6h-13.4
			c-19,0-32.8,15.4-32.8,36.6v22.7h19.8V42.6c0-2.8,0.6-16.8,13-16.8h13.4c12.4,0,13,14,13,16.8v22.7h19.8V42.6z M345,130.5
			c0-8.7-7.1-15.8-15.8-15.8c-8.7,0-15.8,7.1-15.8,15.8c0,4.5,1.9,8.7,5.3,11.7v14.6c0,5.8,4.7,10.5,10.5,10.5
			c5.8,0,10.5-4.7,10.5-10.5v-14.6C343.1,139.3,345,135,345,130.5z M270,254.3c-0.1-44.3-36-80.2-80.3-80.3H83.6
			c-44.3,0-80.3,36-80.3,80.3v135.8H23V254.3c0.1-33.4,27.1-60.5,60.5-60.5h106.1c33.4,0.1,60.5,27.1,60.5,60.5v135.8H270V254.3z"/>
	</g>
</g>
<g id="Capa_3" class="st1">
	<g id="f4cc56e4-9559-4600-9718-06b2a9dac2a5" class="st2">
		<path class="st0" d="M180.2,308.4c27.2,0,49.2-22,49.2-49.2v-59.8c33.9-4.9,59-33.9,59.1-68.1V91.9c0-5.4-4.4-9.8-9.8-9.8l0,0
			h-29.5v19.7h19.7v29.5c0,27.2-22,49.2-49.2,49.2s-49.2-22-49.2-49.2v-29.5H190V82.1h-29.5c-5.4,0-9.8,4.4-9.8,9.8l0,0v39.4
			c0.1,34.2,25.2,63.2,59.1,68.1v59.8c0,16.3-13.2,29.5-29.5,29.5s-29.5-13.2-29.5-29.5v-21.5c15.4-5.4,23.4-22.3,18-37.7
			s-22.3-23.4-37.7-18s-23.4,22.3-18,37.7c3,8.4,9.6,15,18,18v21.5C131,286.4,153,308.4,180.2,308.4z M140.8,200.2
			c5.4,0,9.8,4.4,9.8,9.8c0,5.4-4.4,9.8-9.8,9.8c-5.4,0-9.8-4.4-9.8-9.8C131,204.6,135.4,200.2,140.8,200.2L140.8,200.2z
			 M239.2,366.6h-68.9v-19.7h68.9V366.6z M318,61.5V38.2c0-19.2-15.6-34.8-34.9-34.9H116.6C97.4,3.4,81.8,19,81.7,38.2v323.9
			c0,19.2,15.6,34.8,34.9,34.9H283c19.3,0,34.9-15.6,34.9-34.9V91h-19.7v226.4H101.4V71.4h206.7C313.6,71.4,318,67,318,61.5
			L318,61.5z M298.3,337.1v25c0,8.4-6.8,15.2-15.2,15.2H116.6c-8.4,0-15.2-6.8-15.2-15.2v-25H298.3z M298.3,51.7H101.4V38.2
			c0-8.4,6.8-15.2,15.2-15.2H283c8.4,0,15.2,6.8,15.2,15.2L298.3,51.7L298.3,51.7z"/>
	</g>
</g>
<g id="Capa_2" class="st1">
	<g class="st2">
		<path class="st3" d="M21.8,244.1c-10.2,1.4-20.6,9.2-20.9,20.2c-0.2,5.9,4.2,10.9,8,14.9c2.7,2.9,5.9,5.5,7.9,9
			c3.4,5.7-3.7,8.6-7.8,9.4c-2.3,0.5-1.3,3.9,1,3.5c4.1-0.8,9.1-2.6,10.6-7c2-6-2.2-10.4-6.2-14.5c-5.3-5.4-11.7-11.1-9.3-19.3
			c2-6.8,9.9-11.7,16.6-12.6C24.1,247.4,24.2,243.8,21.8,244.1z"/>
		<path class="st3" d="M43,284.3c0.1-2,0.2-4-0.3-5.8c0-0.3-0.1-0.5-0.2-0.7c-0.3-1-0.9-1.9-1.7-2.6c-3.6-3.5-10.5-0.8-13.5,2.2
			c-3.3,3.3-6.7,11.2-0.7,13.4c2.9,1.1,7.1-1.6,9.3-3.2c1.2-0.9,2.5-2.1,3.5-3.3c0,0,0,0.1,0,0.1c-0.2,4.8-0.1,9.6,0.4,14.4
			c0.2,2.3,3.9,2.3,3.6,0C42.9,293.9,42.8,289.1,43,284.3z M28,287.2c-2.8,0.4,0.7-5.9,1.1-6.4c1-1.4,2.3-2.3,3.9-2.9
			c1.5-0.6,3.4-1,5-0.3c0.4,0.2,0.7,0.5,1,0.9C37.2,282.5,32.3,286.6,28,287.2z"/>
		<path class="st3" d="M54.8,280.9c-0.4-5.7-0.2-11.4,0.1-17.1c0.5-9.6,1.2-19,0.3-28.5c-0.2-2.3-3.8-2.3-3.6,0
			c1,10.7,0.1,21.3-0.5,32c-0.3,6.3,0,12.5,0.5,18.8c0.4,4.5,1,9,4.2,12.4c1.6,1.7,4.1-0.9,2.6-2.6
			C54.8,292.1,55.1,285.7,54.8,280.9z"/>
		<path class="st3" d="M83.9,276c-0.1-1.9-3.2-2.6-3.5-0.5c-0.6,4-2.2,7.1-4.6,10.2c-1.3,1.6-5.2,5.5-7,2.5c-1.8-2.9,0-9.4,2.1-11.8
			c1.5-1.8-1-4.3-2.6-2.6c-3.4,4.1-5.7,13.4-1.5,17.6c2.8,2.9,7.2,0.8,9.7-1.3c1.9-1.6,3.5-3.7,4.8-6c0.4,2.3,0.9,4.6,1.8,6.8
			c0.8,2.2,4.3,1.2,3.5-1C84.7,285.5,84.2,280.9,83.9,276z"/>
		<path class="st3" d="M108.3,273.9c-0.7-7.6-0.9-18.1,2.4-25.1c1-2.1-2.1-3.9-3.1-1.8c-3.4,7.1-3.4,16.4-3.1,24.3
			c-0.1,0.2-0.2,0.3-0.3,0.6c0,0.1,0,0.2-0.1,0.3c-4.5,0.7-8.3,4.9-11,8.3c-3.1,3.9-4.5,9.2-1.2,13.4c3.2,4.2,8.2,0,10.3-2.8
			c1.9-2.6,2.9-5.6,3.7-8.7c1.2,5.2,3.2,10.3,5.7,15c1.1,2.1,4.2,0.2,3.1-1.8C111.1,288.7,109,281.5,108.3,273.9z M97.9,290.7
			c-2.8,3.3-4.6-0.9-4.2-3.4c0.3-1.9,1.6-3.7,2.7-5.1c1.5-1.8,4.3-5,7-6.1C102.5,281.2,101.5,286.5,97.9,290.7z"/>
		<path class="st3" d="M161.6,331.2c-0.5-5.6-0.9-11.3-1.2-16.9c-0.8-13.1-0.2-26-0.3-39.1c0-0.5-0.2-0.9-0.5-1.2
			c0.8-1.9-2.1-3.6-3.2-1.6c-2.3,4.3-5.4,7.9-9.5,10.7c-1,0.7-2.3,1.4-3.5,1.2c-1.4-0.2-1.2-2.6-1.1-3.6c0.1-2.1,0.9-4.2,1.4-6.2
			c0.5-2.3-3-3.2-3.5-1c-0.9,3.8-4,14.6,3.4,14.4c5.1-0.1,9.6-4.5,12.9-8.9c0,12.1-0.4,24.1,0.4,36.2c0.4,5.9,0.8,11.8,1.3,17.6
			c0.3,3.1,0.1,7.1,1.5,10c1,2.1,4.1,0.3,3.1-1.8C161.7,338.9,161.8,334,161.6,331.2z"/>
		<path class="st3" d="M194.6,253.9c0.1-2.3-3.5-2.3-3.6,0c-0.8,16.2-1.1,32.4,1.3,48.5c0.3,2.3,3.8,1.3,3.5-1
			C193.4,285.6,193.8,269.7,194.6,253.9z"/>
		<path class="st3" d="M216.2,271c-4.2-2.6-8.3-2.5-12.5-1.8c1-0.7,2-1.3,2.9-2c3.2-2.5,6.3-5.2,9.5-7.7c2.5-2,8.3-6.7,4.6-10.3
			c-4.3-4.3-11.9-4.3-17.5-3.5c-7.5,1-14.4,3.5-20.9,7.4c-2,1.2-0.2,4.3,1.8,3.1c8.8-5.4,22.6-10.4,32.7-5.6
			c3.4,1.6-2.8,5.8-3.7,6.5c-2.2,1.7-4.3,3.5-6.4,5.2c-3.6,3-8.5,5.3-11.3,9.2c-1,1.4,0.6,3,2,2.7c5.5-1.2,10.2-3.1,15.8-0.8
			c4.7,2,6.8,6.4,5.3,11.2c-2.3,7.1-12.2,11.8-18.8,13.6c-2.2,0.6-1.3,4.1,1,3.5c8.5-2.3,20.6-8.7,21.9-18.5
			C223.4,278,220.7,273.7,216.2,271z"/>
		<path class="st3" d="M233.2,272.8c0-2.3-3.6-2.3-3.6,0c0,4.2-0.6,8.4-0.5,12.7c0.1,4.3,1.2,8.6,2.4,12.7c0.7,2.2,4.2,1.3,3.5-1
			C232.4,288.8,233.1,281.4,233.2,272.8z"/>
		<path class="st3" d="M236.1,259.7c0-0.5-0.1-1-0.5-1.4c-0.7-0.7-1.9-0.7-2.6,0c-0.8,0.9-1.4,2.1-1.3,3.4c0,1.5,1.5,3.1,3.1,2.5
			c1.2-0.5,1.9-1.5,2-2.8C236.8,260.7,236.6,260.1,236.1,259.7z"/>
		<path class="st3" d="M258.6,296.1c-2.8,2.6-5.8,4.8-9.8,3c-3.1-1.4-3.5-5.7-3.5-8.7c0-0.3,0-0.6,0.1-0.9
			c5.7-4.3,10.5-9.9,12.9-16.7c0.6-1.6,0.5-4.4-1.6-4.9c-3-0.8-5.4,2-7.2,4c-4.1,4.5-6.8,10.1-7.5,16.1c-0.1,0.3-0.1,0.6-0.1,0.9
			c-0.2,2.2-0.1,4.5,0.4,6.8c0.8,4,3.9,6.7,7.7,7.7c4.2,1.1,8.3-2,11.2-4.7C262.9,297,260.3,294.5,258.6,296.1z M252.1,274.5
			c0.9-1.1,3.1-2.5,3-3.5c0.1,1.6-1.5,3.7-2.3,5c-1.8,3.1-3.9,5.6-6.4,8C247.6,280.4,249.7,277.2,252.1,274.5z"/>
		<path class="st3" d="M273.8,277.8c-2.8-0.7-5.7,1.7-7.6,3.4c-1.2,1-2.1,2.1-2.9,3.3c0-0.2,0-0.3,0-0.5c0-2.3-3.6-2.3-3.6,0
			c0,2.6-0.2,5.1-0.6,7.7c-0.3,2,2.1,3.2,3.3,1.4c2.5-3.8,4.9-11,10.4-11.7c2.8-0.3,3.3,7.4,3.3,9.1c0,2.3,3.6,2.3,3.6,0
			C279.6,286.1,278.7,279.1,273.8,277.8z"/>
		<path class="st3" d="M302.4,297.5c-5,2.5-11,2.5-12.8-3.8c-0.3-1-0.4-2.1-0.4-3.2c0.4,0,0.9-0.1,1.3-0.5c3.6-3.2,6.4-6.8,9-10.8
			c1.6-2.4,3.5-5.1,3.6-8c0-2.3-2.8-3.4-4.6-2.6c-3.3,1.4-5.6,4.4-7.6,7.2c-3.9,5.5-7.4,14.9-3.9,21.3c3.6,6.6,11.2,6.4,17.2,3.4
			C306.4,299.6,304.5,296.5,302.4,297.5z M293.4,278.8c1.1-1.9,2.5-3.5,4.1-5.1c2.9-2.8,1.6-0.5,0.4,1.5c-2.2,3.7-4.7,7.1-7.7,10.2
			C291,283,292.2,280.7,293.4,278.8z"/>
		<path class="st3" d="M318,271c-4.4,0.1-9.1,4.1-10.6,8.2c-0.7,2-0.7,3.6,0.3,5.4c0.5,0.8,1.4,1.4,2.1,1.9c0.8,0.5,1.5,1,2.2,1.5
			c2.4,1.9-0.5,5.7-1.6,7.3c-1.3,1.9,1.8,3.8,3.1,1.8c2.5-3.8,4.4-7.9,1-11.7c-1.7-1.9-5.2-2.4-3.5-5.8c1.2-2.3,4.2-5,6.8-5.1
			C320.3,274.6,320.3,270.9,318,271z"/>
		<path class="st3" d="M351,284.7c-1.7,5.1-4.3,12-11,10.8c-6.8-1.2-6.3-10.5-6-16c1.1-0.2,2.3-0.4,3.4-0.5c2.3-0.3,2.3-3.9,0-3.6
			c-1.1,0.1-2.1,0.3-3.2,0.5c0.8-12.2,3.9-24.2,3.5-36.5c-0.1-2.3-3.7-2.3-3.6,0c0.3,9.4-1.6,18.6-2.8,27.9c-0.4,2.9-0.8,6-1,9.1
			c-2.6,0.4-5.1,0.9-7.7,1.3c-2.3,0.4-1.3,3.9,1,3.5c2.2-0.4,4.3-0.8,6.5-1.2c-0.1,3.7,0.1,7.4,1,10.9c1.5,5.7,7,8.8,12.5,8
			c6.3-0.9,9.1-8.2,10.8-13.4C355.2,283.4,351.7,282.5,351,284.7z"/>
		<path class="st3" d="M375.2,282.6c1.8-1.4,0.1-4.4-1.7-3.2c-2.6-5-7.8-4.7-11.9-1.2c-3.9,3.3-6.8,10.9-3,15.1
			c2.7,2.9,8.8-2.9,12.9-7.1c0.4,2.1,0.5,4.1,0.5,5.2c0.1,3.7,0.1,7.4,0,11c-0.1,2.3,3.5,2.3,3.6,0c0.2-6.2,0.8-13.3-0.9-19.5
			C374.9,282.8,375.1,282.6,375.2,282.6z M364.6,287.4c-1,0.8-1.9,1.5-3,2.3c-1.9,1.3-0.9-3-0.8-3.4c0.5-2.2,1.7-3.9,3.2-5.4
			c3.1-3.2,5.1-1.7,6.3,1.2C368.4,283.7,366.6,285.6,364.6,287.4z"/>
		<path class="st3" d="M395.8,268.8c-4.9,0.9-8.5,5.1-10.8,10.1c-0.1-0.4-0.1-0.9-0.2-1.3c-0.4-2.3-3.9-1.3-3.5,1
			c0.9,4.5,0.6,9.1,0.6,13.7c0,2.3,3.6,2.3,3.6,0c0.1-6.7,3.6-18.6,11.2-20C399,271.9,398.1,268.4,395.8,268.8z"/>
		<path class="st0" d="M21.7,244.1c-10.2,1.4-20.6,9.2-20.9,20.2c-0.2,5.9,4.2,10.9,8,14.9c2.7,2.9,5.9,5.5,7.9,9
			c3.4,5.7-3.7,8.6-7.8,9.4c-2.3,0.5-1.3,3.9,1,3.5c4.1-0.8,9.1-2.6,10.6-7c2-6-2.2-10.4-6.2-14.5c-5.3-5.4-11.7-11.1-9.3-19.3
			c2-6.8,9.9-11.7,16.6-12.6C24,247.4,24,243.8,21.7,244.1z"/>
		<path class="st0" d="M42.9,284.3c0.1-2,0.2-4-0.3-5.8c0-0.3-0.1-0.5-0.2-0.7c-0.3-1-0.9-1.9-1.7-2.6c-3.6-3.5-10.5-0.8-13.5,2.2
			c-3.3,3.3-6.7,11.2-0.7,13.4c2.9,1.1,7.1-1.6,9.3-3.2c1.2-0.9,2.5-2.1,3.5-3.3c0,0,0,0.1,0,0.1c-0.2,4.8-0.1,9.6,0.4,14.4
			c0.2,2.3,3.9,2.3,3.6,0C42.8,293.9,42.7,289.1,42.9,284.3z M27.9,287.2c-2.8,0.4,0.7-5.9,1.1-6.4c1-1.4,2.3-2.3,3.9-2.9
			c1.5-0.6,3.4-1,5-0.3c0.4,0.2,0.7,0.5,1,0.9C37.1,282.5,32.2,286.6,27.9,287.2z"/>
		<path class="st0" d="M54.7,280.9c-0.4-5.7-0.2-11.4,0.1-17.1c0.5-9.6,1.2-19,0.3-28.5c-0.2-2.3-3.8-2.3-3.6,0
			c1,10.7,0.1,21.3-0.5,32c-0.3,6.3,0,12.5,0.5,18.8c0.4,4.5,1,9,4.2,12.4c1.6,1.7,4.1-0.9,2.6-2.6C54.7,292.1,55,285.7,54.7,280.9z
			"/>
		<path class="st0" d="M83.8,276c-0.1-1.9-3.2-2.6-3.5-0.5c-0.6,4-2.2,7.1-4.6,10.2c-1.3,1.6-5.2,5.5-7,2.5c-1.8-2.9,0-9.4,2.1-11.8
			c1.5-1.8-1-4.3-2.6-2.6c-3.4,4.1-5.7,13.4-1.5,17.6c2.8,2.9,7.2,0.8,9.7-1.3c1.9-1.6,3.5-3.7,4.8-6c0.4,2.3,0.9,4.6,1.8,6.8
			c0.8,2.2,4.3,1.2,3.5-1C84.6,285.5,84,280.9,83.8,276z"/>
		<path class="st0" d="M108.2,273.9c-0.7-7.6-0.9-18.1,2.4-25.1c1-2.1-2.1-3.9-3.1-1.8c-3.4,7.1-3.4,16.4-3.1,24.3
			c-0.1,0.2-0.2,0.3-0.3,0.6c0,0.1,0,0.2-0.1,0.3c-4.5,0.7-8.3,4.9-11,8.3c-3.1,3.9-4.5,9.2-1.2,13.4c3.2,4.2,8.2,0,10.3-2.8
			c1.9-2.6,2.9-5.6,3.7-8.7c1.2,5.2,3.2,10.3,5.7,15c1.1,2.1,4.2,0.2,3.1-1.8C111,288.7,108.9,281.5,108.2,273.9z M97.8,290.7
			c-2.8,3.3-4.6-0.9-4.2-3.4c0.3-1.9,1.6-3.7,2.7-5.1c1.5-1.8,4.3-5,7-6.1C102.4,281.2,101.4,286.5,97.8,290.7z"/>
		<path class="st0" d="M161.5,331.2c-0.5-5.6-0.9-11.3-1.2-16.9c-0.8-13.1-0.2-26-0.3-39.1c0-0.5-0.2-0.9-0.5-1.2
			c0.8-1.9-2.1-3.6-3.2-1.6c-2.3,4.3-5.4,7.9-9.5,10.7c-1,0.7-2.3,1.4-3.5,1.2c-1.4-0.2-1.2-2.6-1.1-3.6c0.1-2.1,0.9-4.2,1.4-6.2
			c0.5-2.3-3-3.2-3.5-1c-0.9,3.8-4,14.6,3.4,14.4c5.1-0.1,9.6-4.5,12.9-8.9c0,12.1-0.4,24.1,0.4,36.2c0.4,5.9,0.8,11.8,1.3,17.6
			c0.3,3.1,0.1,7.1,1.5,10c1,2.1,4.1,0.3,3.1-1.8C161.6,338.9,161.7,334,161.5,331.2z"/>
		<path class="st0" d="M194.5,253.9c0.1-2.3-3.5-2.3-3.6,0c-0.8,16.2-1.1,32.4,1.3,48.5c0.3,2.3,3.8,1.3,3.5-1
			C193.3,285.6,193.7,269.7,194.5,253.9z"/>
		<path class="st0" d="M216.1,271c-4.2-2.6-8.3-2.5-12.5-1.8c1-0.7,2-1.3,2.9-2c3.2-2.5,6.3-5.2,9.5-7.7c2.5-2,8.3-6.7,4.6-10.3
			c-4.3-4.3-11.9-4.3-17.5-3.5c-7.5,1-14.4,3.5-20.9,7.4c-2,1.2-0.2,4.3,1.8,3.1c8.8-5.4,22.6-10.4,32.7-5.6
			c3.4,1.6-2.8,5.8-3.7,6.5c-2.2,1.7-4.3,3.5-6.4,5.2c-3.6,3-8.5,5.3-11.3,9.2c-1,1.4,0.6,3,2,2.7c5.5-1.2,10.2-3.1,15.8-0.8
			c4.7,2,6.8,6.4,5.3,11.2c-2.3,7.1-12.2,11.8-18.8,13.6c-2.2,0.6-1.3,4.1,1,3.5c8.5-2.3,20.6-8.7,21.9-18.5
			C223.3,278,220.6,273.7,216.1,271z"/>
		<path class="st0" d="M233.1,272.8c0-2.3-3.6-2.3-3.6,0c0,4.2-0.6,8.4-0.5,12.7c0.1,4.3,1.2,8.6,2.4,12.7c0.7,2.2,4.2,1.3,3.5-1
			C232.3,288.8,233,281.4,233.1,272.8z"/>
		<path class="st0" d="M236,259.7c0-0.5-0.1-1-0.5-1.4c-0.7-0.7-1.9-0.7-2.6,0c-0.8,0.9-1.4,2.1-1.3,3.4c0,1.5,1.5,3.1,3.1,2.5
			c1.2-0.5,1.9-1.5,2-2.8C236.7,260.7,236.5,260.1,236,259.7z"/>
		<path class="st0" d="M258.5,296.1c-2.8,2.6-5.8,4.8-9.8,3c-3.1-1.4-3.5-5.7-3.5-8.7c0-0.3,0-0.6,0.1-0.9
			c5.7-4.3,10.5-9.9,12.9-16.7c0.6-1.6,0.5-4.4-1.6-4.9c-3-0.8-5.4,2-7.2,4c-4.1,4.5-6.8,10.1-7.5,16.1c-0.1,0.3-0.1,0.6-0.1,0.9
			c-0.2,2.2-0.1,4.5,0.4,6.8c0.8,4,3.9,6.7,7.7,7.7c4.2,1.1,8.3-2,11.2-4.7C262.8,297,260.2,294.5,258.5,296.1z M252,274.5
			c0.9-1.1,3.1-2.5,3-3.5c0.1,1.6-1.5,3.7-2.3,5c-1.8,3.1-3.9,5.6-6.4,8C247.5,280.4,249.6,277.2,252,274.5z"/>
		<path class="st0" d="M273.7,277.8c-2.8-0.7-5.7,1.7-7.6,3.4c-1.2,1-2.1,2.1-2.9,3.3c0-0.2,0-0.3,0-0.5c0-2.3-3.6-2.3-3.6,0
			c0,2.6-0.2,5.1-0.6,7.7c-0.3,2,2.1,3.2,3.3,1.4c2.5-3.8,4.9-11,10.4-11.7c2.8-0.3,3.3,7.4,3.3,9.1c0,2.3,3.6,2.3,3.6,0
			C279.5,286.1,278.6,279.1,273.7,277.8z"/>
		<path class="st0" d="M302.3,297.5c-5,2.5-11,2.5-12.8-3.8c-0.3-1-0.4-2.1-0.4-3.2c0.4,0,0.9-0.1,1.3-0.5c3.6-3.2,6.4-6.8,9-10.8
			c1.6-2.4,3.5-5.1,3.6-8c0-2.3-2.8-3.4-4.6-2.6c-3.3,1.4-5.6,4.4-7.6,7.2c-3.9,5.5-7.4,14.9-3.9,21.3c3.6,6.6,11.2,6.4,17.2,3.4
			C306.2,299.6,304.4,296.5,302.3,297.5z M293.3,278.8c1.1-1.9,2.5-3.5,4.1-5.1c2.9-2.8,1.6-0.5,0.4,1.5c-2.2,3.7-4.7,7.1-7.7,10.2
			C290.9,283,292.1,280.7,293.3,278.8z"/>
		<path class="st0" d="M317.9,271c-4.4,0.1-9.1,4.1-10.6,8.2c-0.7,2-0.7,3.6,0.3,5.4c0.5,0.8,1.4,1.4,2.1,1.9c0.8,0.5,1.5,1,2.2,1.5
			c2.4,1.9-0.5,5.7-1.6,7.3c-1.3,1.9,1.8,3.8,3.1,1.8c2.5-3.8,4.4-7.9,1-11.7c-1.7-1.9-5.2-2.4-3.5-5.8c1.2-2.3,4.2-5,6.8-5.1
			C320.2,274.6,320.2,270.9,317.9,271z"/>
		<path class="st0" d="M350.9,284.7c-1.7,5.1-4.3,12-11,10.8c-6.8-1.2-6.3-10.5-6-16c1.1-0.2,2.3-0.4,3.4-0.5c2.3-0.3,2.3-3.9,0-3.6
			c-1.1,0.1-2.1,0.3-3.2,0.5c0.8-12.2,3.9-24.2,3.5-36.5c-0.1-2.3-3.7-2.3-3.6,0c0.3,9.4-1.6,18.6-2.8,27.9c-0.4,2.9-0.8,6-1,9.1
			c-2.6,0.4-5.1,0.9-7.7,1.3c-2.3,0.4-1.3,3.9,1,3.5c2.2-0.4,4.3-0.8,6.5-1.2c-0.1,3.7,0.1,7.4,1,10.9c1.5,5.7,7,8.8,12.5,8
			c6.3-0.9,9.1-8.2,10.8-13.4C355.1,283.4,351.6,282.5,350.9,284.7z"/>
		<path class="st0" d="M375.1,282.6c1.8-1.4,0.1-4.4-1.7-3.2c-2.6-5-7.8-4.7-11.9-1.2c-3.9,3.3-6.8,10.9-3,15.1
			c2.7,2.9,8.8-2.9,12.9-7.1c0.4,2.1,0.5,4.1,0.5,5.2c0.1,3.7,0.1,7.4,0,11c-0.1,2.3,3.5,2.3,3.6,0c0.2-6.2,0.8-13.3-0.9-19.5
			C374.8,282.8,375,282.6,375.1,282.6z M364.5,287.4c-1,0.8-1.9,1.5-3,2.3c-1.9,1.3-0.9-3-0.8-3.4c0.5-2.2,1.7-3.9,3.2-5.4
			c3.1-3.2,5.1-1.7,6.3,1.2C368.3,283.7,366.5,285.6,364.5,287.4z"/>
		<path class="st0" d="M395.7,268.8c-4.9,0.9-8.5,5.1-10.8,10.1c-0.1-0.4-0.1-0.9-0.2-1.3c-0.4-2.3-3.9-1.3-3.5,1
			c0.9,4.5,0.6,9.1,0.6,13.7c0,2.3,3.6,2.3,3.6,0c0.1-6.7,3.6-18.6,11.2-20C398.9,271.9,398,268.4,395.7,268.8z"/>
		<path class="st0" d="M384.8,55.2H14C5.7,78.5,0.8,107.3,0.8,138.5s4.9,60,13.1,83.3h370.8c8.3-23.3,13.1-52.1,13.1-83.3
			S393.1,78.5,384.8,55.2z"/>
		<path class="st3" d="M191.6,127.5c-13.8,0-20.6,12.4-20.6,21.9c0,9.5,6.9,21.9,23.3,21.9c4.2,0,7.6-0.8,9.6-1.5l5.5-8l-1-1.2
			c-3,2.2-6.9,3.2-10.6,3.2c-10.4,0-17.6-9.1-16.9-19.1h29.4C210.1,134.1,202,127.5,191.6,127.5z M181.1,140.8
			c-0.2-5.2,3.3-9.8,8.8-9.8c6.6,0,9.4,3.8,9.4,9.8H181.1z M166.6,163.2c-2.3,0-3.1-2-3.1-5.7v-25.2c0-14.6,0.4-25.9,0.4-33.8h-2
			c-2.5,2.8-8.6,5.7-13.6,7v2c2.6,0.4,5.2,1.8,5.2,7.5v15c-3.5-1.6-6.9-2.5-10.3-2.5c-13,0-22.5,8.1-22.5,22.1
			c0,12.2,8.1,21.7,20.4,21.7c3.4,0,5.4-0.5,7.1-1.5l5.9-5.1c1.6,3,4.5,5.6,7.7,6.7c1.9-2.4,5.7-5.2,9.2-7.5l-1.5-1.5
			C168.7,162.8,168,163.2,166.6,163.2z M153.7,161.8c-2.6,2.5-5.3,3.5-8.2,3.5c-8.8,0-13.9-9.9-13.9-18.3c0-6.9,3.2-15.5,11.2-15.5
			c8,0,10.8,4,10.8,13.7V161.8z M223.3,138c0-4.2,2.9-6.4,7-6.4c5.5,0,8.3,2.5,9.4,7.7h3.2l0.4-9.1c-4.3-1.3-8.5-2.6-12.9-2.6
			c-8.3,0-16,4-16,13.4c0,14.4,20.8,12.8,20.8,20.2c0,3.9-3.3,6.3-7.1,6.3c-4.5,0-8.5-3.4-9.5-8.3H215l0.6,9.4
			c3,1.9,8.2,2.9,11.7,2.9c8.7,0,16.1-3.9,16.1-13.5C243.4,144,223.3,147.7,223.3,138z M113.8,155.5L91.7,98.6h-1.2L68.9,153
			c-1.9,4.9-5.8,14.4-9.8,15.2v2.2c2.9,0,5.8-0.4,8.7-0.4c2.9,0,5.8,0.4,8.7,0.4v-2.2c-2.4,0-3.6-1.9-3.6-4.3c0-1.1,0.2-3.3,0.7-5.1
			l2.7-8.9h23.8l3.5,9.4c0.7,2,1.2,3.7,1.2,5.1c0,2.3-1.2,3.7-3.3,3.7v2.2c3.4,0,6.8-0.4,10.2-0.4c3.4,0,6.8,0.4,10.2,0.4v-2.2
			C118.3,167.8,117.4,164.4,113.8,155.5z M78.2,145l9.8-26.6L98.3,145H78.2z M262.3,162.5v-39.2c0-9.3,0.3-19.2,0.4-24.7h-2
			c-2.6,2.8-10.6,5.7-14.2,6.2v2.3c3.2,0,5,2.4,5.2,6.6c0.3,3.8,0.8,11.4,0.8,17.3v32.8c0,2.2-0.8,4-4,4.5v2c2.9,0,5.8-0.3,8.7-0.3
			c3,0,6.1,0.3,9.1,0.3v-2C263.1,167.8,262.3,166,262.3,162.5z M319.6,138c0-4.2,2.9-6.4,7-6.4c5.5,0,8.3,2.5,9.4,7.7h3.2l0.4-9.1
			c-4.2-1.3-8.5-2.6-12.8-2.6c-8.3,0-16,4-16,13.4c0,14.4,20.8,12.8,20.8,20.2c0,3.9-3.3,6.3-7.1,6.3c-4.6,0-8.5-3.4-9.5-8.3h-3.7
			l0.6,9.4c3,1.9,8.2,2.9,11.7,2.9c8.7,0,16.1-3.9,16.1-13.5C339.8,144,319.6,147.7,319.6,138z M305.1,164.2c-2.2,0-3-1.3-3-6v-3.5
			c0.1-5.8,0.4-11,0.4-14.7c0-10.1-7.7-12.5-16.7-12.5c-4.7,0-8.8,0.6-13,1.8v9.6h2.4c2.5-3.8,5.1-5.4,10-5.4
			c6.9,0,7.3,6.1,7.3,11.5c-1.4,0-3.1-0.3-4.7-0.3c-9.2,0-19.4,4.1-19.4,14.9c0,7.5,6.8,11.7,13.7,11.7c4.4,0,7.7-2.4,11.1-5
			c1.2,2.5,4.2,4.4,8.1,5l7.6-6.1l-1.5-1.5C306.5,164.1,305.6,164.2,305.1,164.2z M286,165.4c-4.2,0-7.9-3.5-7.9-8.2
			c0-6.5,4.9-8.9,9.5-8.9c1.8,0,3.7,0.3,4.8,0.5l0.3,14.9C291.1,164.7,289.1,165.4,286,165.4z"/>
	</g>
</g>
</svg>
