<?xml version="1.0" encoding="utf-8"?>
<!-- Generator: Adobe Illustrator 26.0.3, SVG Export Plug-In . SVG Version: 6.00 Build 0)  -->
<svg version="1.1" xmlns="http://www.w3.org/2000/svg" xmlns:xlink="http://www.w3.org/1999/xlink" x="0px" y="0px"
	 viewBox="0 0 405.2 294.8" style="enable-background:new 0 0 405.2 294.8;" xml:space="preserve">
<style type="text/css">
	.st0{display:none;}
	.st1{display:inline;}
	.st2{fill:#009FE3;}
	.st3{fill:#FFFFFF;}
</style>
<g id="Capa_1" class="st0">
	<g id="ada2da3f-ead0-466f-82d6-532381aafc36" class="st1">
		<path class="st2" d="M152,103.2H137c-28.6,0-51.8-23.2-51.8-51.8V6.8C85.2-21.8,108.4-45,137-45H152c28.6,0,51.8,23.2,51.8,51.8
			v44.6C203.8,80,180.6,103.2,152,103.2z M137.1-25.3c-17.7,0-32.1,14.4-32.1,32.1v44.6c0,17.7,14.4,32.1,32.1,32.1h14.9
			c17.7,0,32.1-14.4,32.1-32.1V6.8c0-17.7-14.4-32.1-32.1-32.1L137.1-25.3z M75.4,221.8H55.7v118.5h19.8V221.8z M223.6,221.8h-19.8
			v118.5h19.8V221.8z M373.4,152.5h-82.3c-15.4,0-27.9-12.5-28-28V52.1c0-15.4,12.5-27.9,28-28h82.3c15.4,0,27.9,12.5,28,28v72.5
			C401.4,140,388.8,152.5,373.4,152.5L373.4,152.5z M291.1,44c-4.5,0-8.2,3.7-8.2,8.2v72.5c0,4.5,3.7,8.2,8.2,8.2h82.3
			c4.5,0,8.2-3.7,8.2-8.2V52.2c0-4.5-3.7-8.2-8.2-8.2L291.1,44z M371.7-8.4c0-21.2-13.8-36.6-32.8-36.6h-13.4
			c-19,0-32.8,15.4-32.8,36.6v22.7h19.8V-8.4c0-2.8,0.6-16.8,13-16.8h13.4c12.4,0,13,14,13,16.8v22.7h19.8V-8.4z M348,79.4
			c0-8.7-7.1-15.8-15.8-15.8s-15.8,7.1-15.8,15.8c0,4.5,1.9,8.7,5.3,11.7v14.6c0,5.8,4.7,10.5,10.5,10.5c5.8,0,10.5-4.7,10.5-10.5
			V91.1C346.1,88.2,348,83.9,348,79.4z M273,203.3c-0.1-44.3-36-80.2-80.3-80.3H86.5c-44.3,0-80.3,36-80.3,80.3V339H26V203.3
			c0.1-33.4,27.1-60.5,60.5-60.5h106.1c33.4,0.1,60.5,27.1,60.5,60.5V339H273V203.3z"/>
	</g>
</g>
<g id="Capa_3" class="st0">
	<g id="f4cc56e4-9559-4600-9718-06b2a9dac2a5" class="st1">
		<path class="st2" d="M183.2,257.4c27.2,0,49.2-22,49.2-49.2v-59.8c33.9-4.9,59-33.9,59.1-68.1V40.8c0-5.4-4.4-9.8-9.8-9.8l0,0
			h-29.5v19.7h19.7v29.5c0,27.2-22,49.2-49.2,49.2s-49.2-22-49.2-49.2V50.7H193V31h-29.5c-5.4,0-9.8,4.4-9.8,9.8l0,0v39.4
			c0.1,34.2,25.2,63.2,59.1,68.1v59.8c0,16.3-13.2,29.5-29.5,29.5s-29.5-13.2-29.5-29.5v-21.5c15.4-5.4,23.4-22.3,18-37.7
			s-22.3-23.4-37.7-18c-15.4,5.4-23.4,22.3-18,37.7c3,8.4,9.6,15,18,18v21.5C134,235.3,156,257.4,183.2,257.4z M143.8,149.1
			c5.4,0,9.8,4.4,9.8,9.8c0,5.4-4.4,9.8-9.8,9.8s-9.8-4.4-9.8-9.8C133.9,153.5,138.4,149.1,143.8,149.1L143.8,149.1z M242.2,315.5
			h-68.9v-19.7h68.9V315.5z M321,10.4v-23.3c0-19.2-15.6-34.8-34.9-34.9H119.6c-19.2,0-34.8,15.6-34.9,34.9V311
			c0,19.2,15.6,34.8,34.9,34.9H286c19.3,0,34.9-15.6,34.9-34.9V40h-19.7v226.4H104.4V20.3h206.7C316.5,20.3,321,15.9,321,10.4
			L321,10.4z M301.3,286v25c0,8.4-6.8,15.2-15.2,15.2H119.6c-8.4,0-15.2-6.8-15.2-15.2v-25H301.3z M301.3,0.6H104.4v-13.5
			c0-8.4,6.8-15.2,15.2-15.2H286c8.4,0,15.2,6.8,15.2,15.2L301.3,0.6L301.3,0.6z"/>
	</g>
</g>
<g id="Capa_2">
	<g>
		<path class="st3" d="M24.8,193c-10.2,1.4-20.6,9.2-20.9,20.2c-0.2,5.9,4.2,10.9,8,14.9c2.7,2.9,5.9,5.5,7.9,9
			c3.4,5.7-3.7,8.6-7.8,9.4c-2.3,0.5-1.3,3.9,1,3.5c4.1-0.8,9.1-2.6,10.6-7c2-6-2.2-10.4-6.2-14.5c-5.3-5.4-11.7-11.1-9.3-19.3
			c2-6.8,9.9-11.7,16.6-12.6C27.1,196.4,27.1,192.7,24.8,193z"/>
		<path class="st3" d="M46,233.2c0.1-2,0.2-4-0.3-5.8c0-0.3-0.1-0.5-0.2-0.7c-0.3-1-0.9-1.9-1.7-2.6c-3.6-3.5-10.5-0.8-13.5,2.2
			c-3.3,3.3-6.7,11.2-0.7,13.4c2.9,1.1,7.1-1.6,9.3-3.2c1.2-0.9,2.5-2.1,3.5-3.3c0,0,0,0.1,0,0.1c-0.2,4.8-0.1,9.6,0.4,14.4
			c0.2,2.3,3.9,2.3,3.6,0C45.9,242.8,45.8,238,46,233.2z M31,236.1c-2.8,0.4,0.7-5.9,1.1-6.4c1-1.4,2.3-2.3,3.9-2.9
			c1.5-0.6,3.4-1,5-0.3c0.4,0.2,0.7,0.5,1,0.9C40.2,231.4,35.3,235.5,31,236.1z"/>
		<path class="st3" d="M57.8,229.8c-0.4-5.7-0.2-11.4,0.1-17.1c0.5-9.6,1.2-19,0.3-28.5c-0.2-2.3-3.8-2.3-3.6,0
			c1,10.7,0.1,21.3-0.5,32c-0.3,6.3,0,12.5,0.5,18.8c0.4,4.5,1,9,4.2,12.4c1.6,1.7,4.1-0.9,2.6-2.6C57.8,241,58.1,234.6,57.8,229.8z
			"/>
		<path class="st3" d="M86.9,224.9c-0.1-1.9-3.2-2.6-3.5-0.5c-0.6,4-2.2,7.1-4.6,10.2c-1.3,1.6-5.2,5.5-7,2.5
			c-1.8-2.9,0-9.4,2.1-11.8c1.5-1.8-1-4.3-2.6-2.6c-3.4,4.1-5.7,13.4-1.5,17.6c2.8,2.9,7.2,0.8,9.7-1.3c1.9-1.6,3.5-3.7,4.8-6
			c0.4,2.3,0.9,4.6,1.8,6.8c0.8,2.2,4.3,1.2,3.5-1C87.7,234.5,87.1,229.8,86.9,224.9z"/>
		<path class="st3" d="M111.3,222.8c-0.7-7.6-0.9-18.1,2.4-25.1c1-2.1-2.1-3.9-3.1-1.8c-3.4,7.1-3.4,16.4-3.1,24.3
			c-0.1,0.2-0.2,0.3-0.3,0.6c0,0.1,0,0.2-0.1,0.3c-4.5,0.7-8.3,4.9-11,8.3c-3.1,3.9-4.5,9.2-1.2,13.4c3.2,4.2,8.2,0,10.3-2.8
			c1.9-2.6,2.9-5.6,3.7-8.7c1.2,5.2,3.2,10.3,5.7,15c1.1,2.1,4.2,0.2,3.1-1.8C114.1,237.6,112,230.4,111.3,222.8z M100.9,239.6
			c-2.8,3.3-4.6-0.9-4.2-3.4c0.3-1.9,1.6-3.7,2.7-5.1c1.5-1.8,4.3-5,7-6.1C105.5,230.1,104.5,235.5,100.9,239.6z"/>
		<path class="st3" d="M164.6,280.1c-0.5-5.6-0.9-11.3-1.2-16.9c-0.8-13.1-0.2-26-0.3-39.1c0-0.5-0.2-0.9-0.5-1.2
			c0.8-1.9-2.1-3.6-3.2-1.6c-2.3,4.3-5.4,7.9-9.5,10.7c-1,0.7-2.3,1.4-3.5,1.2c-1.4-0.2-1.2-2.6-1.1-3.6c0.1-2.1,0.9-4.2,1.4-6.2
			c0.5-2.3-3-3.2-3.5-1c-0.9,3.8-4,14.6,3.4,14.4c5.1-0.1,9.6-4.5,12.9-8.9c0,12.1-0.4,24.1,0.4,36.2c0.4,5.9,0.8,11.8,1.3,17.6
			c0.3,3.1,0.1,7.1,1.5,10c1,2.1,4.1,0.3,3.1-1.8C164.7,287.8,164.8,282.9,164.6,280.1z"/>
		<path class="st3" d="M197.6,202.8c0.1-2.3-3.5-2.3-3.6,0c-0.8,16.2-1.1,32.4,1.3,48.5c0.3,2.3,3.8,1.3,3.5-1
			C196.4,234.5,196.8,218.6,197.6,202.8z"/>
		<path class="st3" d="M219.2,219.9c-4.2-2.6-8.3-2.5-12.5-1.8c1-0.7,2-1.3,2.9-2c3.2-2.5,6.3-5.2,9.5-7.7c2.5-2,8.3-6.7,4.6-10.3
			c-4.3-4.3-11.9-4.3-17.5-3.5c-7.5,1-14.4,3.5-20.9,7.4c-2,1.2-0.2,4.3,1.8,3.1c8.8-5.4,22.6-10.4,32.7-5.6
			c3.4,1.6-2.8,5.8-3.7,6.5c-2.2,1.7-4.3,3.5-6.4,5.2c-3.6,3-8.5,5.3-11.3,9.2c-1,1.4,0.6,3,2,2.7c5.5-1.2,10.2-3.1,15.8-0.8
			c4.7,2,6.8,6.4,5.3,11.2c-2.3,7.1-12.2,11.8-18.8,13.6c-2.2,0.6-1.3,4.1,1,3.5c8.5-2.3,20.6-8.7,21.9-18.5
			C226.4,226.9,223.7,222.7,219.2,219.9z"/>
		<path class="st3" d="M236.2,221.7c0-2.3-3.6-2.3-3.6,0c0,4.2-0.6,8.4-0.5,12.7c0.1,4.3,1.2,8.6,2.4,12.7c0.7,2.2,4.2,1.3,3.5-1
			C235.4,237.8,236.1,230.3,236.2,221.7z"/>
		<path class="st3" d="M239.1,208.6c0-0.5-0.1-1-0.5-1.4c-0.7-0.7-1.9-0.7-2.6,0c-0.8,0.9-1.4,2.1-1.3,3.4c0,1.5,1.5,3.1,3.1,2.5
			c1.2-0.5,1.9-1.5,2-2.8C239.8,209.6,239.6,209,239.1,208.6z"/>
		<path class="st3" d="M261.6,245c-2.8,2.6-5.8,4.8-9.8,3c-3.1-1.4-3.5-5.7-3.5-8.7c0-0.3,0-0.6,0.1-0.9c5.7-4.3,10.5-9.9,12.9-16.7
			c0.6-1.6,0.5-4.4-1.6-4.9c-3-0.8-5.4,2-7.2,4c-4.1,4.5-6.8,10.1-7.5,16.1c-0.1,0.3-0.1,0.6-0.1,0.9c-0.2,2.2-0.1,4.5,0.4,6.8
			c0.8,4,3.9,6.7,7.7,7.7c4.2,1.1,8.3-2,11.2-4.7C265.9,245.9,263.3,243.4,261.6,245z M255.1,223.4c0.9-1.1,3.1-2.5,3-3.5
			c0.1,1.6-1.5,3.7-2.3,5c-1.8,3.1-3.9,5.6-6.4,8C250.6,229.3,252.7,226.2,255.1,223.4z"/>
		<path class="st3" d="M276.7,226.7c-2.8-0.7-5.7,1.7-7.6,3.4c-1.2,1-2.1,2.1-2.9,3.3c0-0.2,0-0.3,0-0.5c0-2.3-3.6-2.3-3.6,0
			c0,2.6-0.2,5.1-0.6,7.7c-0.3,2,2.1,3.2,3.3,1.4c2.5-3.8,4.9-11,10.4-11.7c2.8-0.3,3.3,7.4,3.3,9.1c0,2.3,3.6,2.3,3.6,0
			C282.6,235,281.7,228,276.7,226.7z"/>
		<path class="st3" d="M305.4,246.4c-5,2.5-11,2.5-12.8-3.8c-0.3-1-0.4-2.1-0.4-3.2c0.4,0,0.9-0.1,1.3-0.5c3.6-3.2,6.4-6.8,9-10.8
			c1.6-2.4,3.5-5.1,3.6-8c0-2.3-2.8-3.4-4.6-2.6c-3.3,1.4-5.6,4.4-7.6,7.2c-3.9,5.5-7.4,14.9-3.9,21.3c3.6,6.6,11.2,6.4,17.2,3.4
			C309.3,248.5,307.5,245.4,305.4,246.4z M296.4,227.7c1.1-1.9,2.5-3.5,4.1-5.1c2.9-2.8,1.6-0.5,0.4,1.5c-2.2,3.7-4.7,7.1-7.7,10.2
			C294,231.9,295.2,229.6,296.4,227.7z"/>
		<path class="st3" d="M320.9,219.9c-4.4,0.1-9.1,4.1-10.6,8.2c-0.7,2-0.7,3.6,0.3,5.4c0.5,0.8,1.4,1.4,2.1,1.9
			c0.8,0.5,1.5,1,2.2,1.5c2.4,1.9-0.5,5.7-1.6,7.3c-1.3,1.9,1.8,3.8,3.1,1.8c2.5-3.8,4.4-7.9,1-11.7c-1.7-1.9-5.2-2.4-3.5-5.8
			c1.2-2.3,4.2-5,6.8-5.1C323.3,223.5,323.3,219.9,320.9,219.9z"/>
		<path class="st3" d="M354,233.6c-1.7,5.1-4.3,12-11,10.8c-6.8-1.2-6.3-10.5-6-16c1.1-0.2,2.3-0.4,3.4-0.5c2.3-0.3,2.3-3.9,0-3.6
			c-1.1,0.1-2.1,0.3-3.2,0.5c0.8-12.2,3.9-24.2,3.5-36.5c-0.1-2.3-3.7-2.3-3.6,0c0.3,9.4-1.6,18.6-2.8,27.9c-0.4,2.9-0.8,6-1,9.1
			c-2.6,0.4-5.1,0.9-7.7,1.3c-2.3,0.4-1.3,3.9,1,3.5c2.2-0.4,4.3-0.8,6.5-1.2c-0.1,3.7,0.1,7.4,1,10.9c1.5,5.7,7,8.8,12.5,8
			c6.3-0.9,9.1-8.2,10.8-13.4C358.2,232.3,354.7,231.4,354,233.6z"/>
		<path class="st3" d="M378.2,231.5c1.8-1.4,0.1-4.4-1.7-3.2c-2.6-5-7.8-4.7-11.9-1.2c-3.9,3.3-6.8,10.9-3,15.1
			c2.7,2.9,8.8-2.9,12.9-7.1c0.4,2.1,0.5,4.1,0.5,5.2c0.1,3.7,0.1,7.4,0,11c-0.1,2.3,3.5,2.3,3.6,0c0.2-6.2,0.8-13.3-0.9-19.5
			C377.9,231.7,378.1,231.6,378.2,231.5z M367.6,236.3c-1,0.8-1.9,1.5-3,2.3c-1.9,1.3-0.9-3-0.8-3.4c0.5-2.2,1.7-3.9,3.2-5.4
			c3.1-3.2,5.1-1.7,6.3,1.2C371.4,232.6,369.6,234.5,367.6,236.3z"/>
		<path class="st3" d="M398.8,217.7c-4.9,0.9-8.5,5.1-10.8,10.1c-0.1-0.4-0.1-0.9-0.2-1.3c-0.4-2.3-3.9-1.3-3.5,1
			c0.9,4.5,0.6,9.1,0.6,13.7c0,2.3,3.6,2.3,3.6,0c0.1-6.7,3.6-18.6,11.2-20C402,220.8,401.1,217.3,398.8,217.7z"/>
		<path class="st2" d="M24.7,193c-10.2,1.4-20.6,9.2-20.9,20.2c-0.2,5.9,4.2,10.9,8,14.9c2.7,2.9,5.9,5.5,7.9,9
			c3.4,5.7-3.7,8.6-7.8,9.4c-2.3,0.5-1.3,3.9,1,3.5c4.1-0.8,9.1-2.6,10.6-7c2-6-2.2-10.4-6.2-14.5c-5.3-5.4-11.7-11.1-9.3-19.3
			c2-6.8,9.9-11.7,16.6-12.6C27,196.4,27,192.7,24.7,193z"/>
		<path class="st2" d="M45.9,233.2c0.1-2,0.2-4-0.3-5.8c0-0.3-0.1-0.5-0.2-0.7c-0.3-1-0.9-1.9-1.7-2.6c-3.6-3.5-10.5-0.8-13.5,2.2
			c-3.3,3.3-6.7,11.2-0.7,13.4c2.9,1.1,7.1-1.6,9.3-3.2c1.2-0.9,2.5-2.1,3.5-3.3c0,0,0,0.1,0,0.1c-0.2,4.8-0.1,9.6,0.4,14.4
			c0.2,2.3,3.9,2.3,3.6,0C45.8,242.8,45.7,238,45.9,233.2z M30.9,236.1c-2.8,0.4,0.7-5.9,1.1-6.4c1-1.4,2.3-2.3,3.9-2.9
			c1.5-0.6,3.4-1,5-0.3c0.4,0.2,0.7,0.5,1,0.9C40.1,231.4,35.2,235.5,30.9,236.1z"/>
		<path class="st2" d="M57.7,229.8c-0.4-5.7-0.2-11.4,0.1-17.1c0.5-9.6,1.2-19,0.3-28.5c-0.2-2.3-3.8-2.3-3.6,0
			c1,10.7,0.1,21.3-0.5,32c-0.3,6.3,0,12.5,0.5,18.8c0.4,4.5,1,9,4.2,12.4c1.6,1.7,4.1-0.9,2.6-2.6C57.7,241,58,234.6,57.7,229.8z"
			/>
		<path class="st2" d="M86.8,224.9c-0.1-1.9-3.2-2.6-3.5-0.5c-0.6,4-2.2,7.1-4.6,10.2c-1.3,1.6-5.2,5.5-7,2.5
			c-1.8-2.9,0-9.4,2.1-11.8c1.5-1.8-1-4.3-2.6-2.6c-3.4,4.1-5.7,13.4-1.5,17.6c2.8,2.9,7.2,0.8,9.7-1.3c1.9-1.6,3.5-3.7,4.8-6
			c0.4,2.3,0.9,4.6,1.8,6.8c0.8,2.2,4.3,1.2,3.5-1C87.6,234.5,87,229.8,86.8,224.9z"/>
		<path class="st2" d="M111.2,222.8c-0.7-7.6-0.9-18.1,2.4-25.1c1-2.1-2.1-3.9-3.1-1.8c-3.4,7.1-3.4,16.4-3.1,24.3
			c-0.1,0.2-0.2,0.3-0.3,0.6c0,0.1,0,0.2-0.1,0.3c-4.5,0.7-8.3,4.9-11,8.3c-3.1,3.9-4.5,9.2-1.2,13.4c3.2,4.2,8.2,0,10.3-2.8
			c1.9-2.6,2.9-5.6,3.7-8.7c1.2,5.2,3.2,10.3,5.7,15c1.1,2.1,4.2,0.2,3.1-1.8C114,237.6,111.9,230.4,111.2,222.8z M100.8,239.6
			c-2.8,3.3-4.6-0.9-4.2-3.4c0.3-1.9,1.6-3.7,2.7-5.1c1.5-1.8,4.3-5,7-6.1C105.4,230.1,104.4,235.5,100.8,239.6z"/>
		<path class="st2" d="M164.5,280.1c-0.5-5.6-0.9-11.3-1.2-16.9c-0.8-13.1-0.2-26-0.3-39.1c0-0.5-0.2-0.9-0.5-1.2
			c0.8-1.9-2.1-3.6-3.2-1.6c-2.3,4.3-5.4,7.9-9.5,10.7c-1,0.7-2.3,1.4-3.5,1.2c-1.4-0.2-1.2-2.6-1.1-3.6c0.1-2.1,0.9-4.2,1.4-6.2
			c0.5-2.3-3-3.2-3.5-1c-0.9,3.8-4,14.6,3.4,14.4c5.1-0.1,9.6-4.5,12.9-8.9c0,12.1-0.4,24.1,0.4,36.2c0.4,5.9,0.8,11.8,1.3,17.6
			c0.3,3.1,0.1,7.1,1.5,10c1,2.1,4.1,0.3,3.1-1.8C164.6,287.8,164.7,282.9,164.5,280.1z"/>
		<path class="st2" d="M197.5,202.8c0.1-2.3-3.5-2.3-3.6,0c-0.8,16.2-1.1,32.4,1.3,48.5c0.3,2.3,3.8,1.3,3.5-1
			C196.3,234.5,196.7,218.6,197.5,202.8z"/>
		<path class="st2" d="M219.1,219.9c-4.2-2.6-8.3-2.5-12.5-1.8c1-0.7,2-1.3,2.9-2c3.2-2.5,6.3-5.2,9.5-7.7c2.5-2,8.3-6.7,4.6-10.3
			c-4.3-4.3-11.9-4.3-17.5-3.5c-7.5,1-14.4,3.5-20.9,7.4c-2,1.2-0.2,4.3,1.8,3.1c8.8-5.4,22.6-10.4,32.7-5.6
			c3.4,1.6-2.8,5.8-3.7,6.5c-2.2,1.7-4.3,3.5-6.4,5.2c-3.6,3-8.5,5.3-11.3,9.2c-1,1.4,0.6,3,2,2.7c5.5-1.2,10.2-3.1,15.8-0.8
			c4.7,2,6.8,6.4,5.3,11.2c-2.3,7.1-12.2,11.8-18.8,13.6c-2.2,0.6-1.3,4.1,1,3.5c8.5-2.3,20.6-8.7,21.9-18.5
			C226.3,226.9,223.6,222.7,219.1,219.9z"/>
		<path class="st2" d="M236.1,221.7c0-2.3-3.6-2.3-3.6,0c0,4.2-0.6,8.4-0.5,12.7c0.1,4.3,1.2,8.6,2.4,12.7c0.7,2.2,4.2,1.3,3.5-1
			C235.3,237.8,236,230.3,236.1,221.7z"/>
		<path class="st2" d="M239,208.6c0-0.5-0.1-1-0.5-1.4c-0.7-0.7-1.9-0.7-2.6,0c-0.8,0.9-1.4,2.1-1.3,3.4c0,1.5,1.5,3.1,3.1,2.5
			c1.2-0.5,1.9-1.5,2-2.8C239.7,209.6,239.5,209,239,208.6z"/>
		<path class="st2" d="M261.5,245c-2.8,2.6-5.8,4.8-9.8,3c-3.1-1.4-3.5-5.7-3.5-8.7c0-0.3,0-0.6,0.1-0.9c5.7-4.3,10.5-9.9,12.9-16.7
			c0.6-1.6,0.5-4.4-1.6-4.9c-3-0.8-5.4,2-7.2,4c-4.1,4.5-6.8,10.1-7.5,16.1c-0.1,0.3-0.1,0.6-0.1,0.9c-0.2,2.2-0.1,4.5,0.4,6.8
			c0.8,4,3.9,6.7,7.7,7.7c4.2,1.1,8.3-2,11.2-4.7C265.8,245.9,263.2,243.4,261.5,245z M255,223.4c0.9-1.1,3.1-2.5,3-3.5
			c0.1,1.6-1.5,3.7-2.3,5c-1.8,3.1-3.9,5.6-6.4,8C250.5,229.3,252.6,226.2,255,223.4z"/>
		<path class="st2" d="M276.6,226.7c-2.8-0.7-5.7,1.7-7.6,3.4c-1.2,1-2.1,2.1-2.9,3.3c0-0.2,0-0.3,0-0.5c0-2.3-3.6-2.3-3.6,0
			c0,2.6-0.2,5.1-0.6,7.7c-0.3,2,2.1,3.2,3.3,1.4c2.5-3.8,4.9-11,10.4-11.7c2.8-0.3,3.3,7.4,3.3,9.1c0,2.3,3.6,2.3,3.6,0
			C282.5,235,281.6,228,276.6,226.7z"/>
		<path class="st2" d="M305.3,246.4c-5,2.5-11,2.5-12.8-3.8c-0.3-1-0.4-2.1-0.4-3.2c0.4,0,0.9-0.1,1.3-0.5c3.6-3.2,6.4-6.8,9-10.8
			c1.6-2.4,3.5-5.1,3.6-8c0-2.3-2.8-3.4-4.6-2.6c-3.3,1.4-5.6,4.4-7.6,7.2c-3.9,5.5-7.4,14.9-3.9,21.3c3.6,6.6,11.2,6.4,17.2,3.4
			C309.2,248.5,307.4,245.4,305.3,246.4z M296.2,227.7c1.1-1.9,2.5-3.5,4.1-5.1c2.9-2.8,1.6-0.5,0.4,1.5c-2.2,3.7-4.7,7.1-7.7,10.2
			C293.9,231.9,295.1,229.6,296.2,227.7z"/>
		<path class="st2" d="M320.8,219.9c-4.4,0.1-9.1,4.1-10.6,8.2c-0.7,2-0.7,3.6,0.3,5.4c0.5,0.8,1.4,1.4,2.1,1.9
			c0.8,0.5,1.5,1,2.2,1.5c2.4,1.9-0.5,5.7-1.6,7.3c-1.3,1.9,1.8,3.8,3.1,1.8c2.5-3.8,4.4-7.9,1-11.7c-1.7-1.9-5.2-2.4-3.5-5.8
			c1.2-2.3,4.2-5,6.8-5.1C323.2,223.5,323.2,219.9,320.8,219.9z"/>
		<path class="st2" d="M353.9,233.6c-1.7,5.1-4.3,12-11,10.8c-6.8-1.2-6.3-10.5-6-16c1.1-0.2,2.3-0.4,3.4-0.5c2.3-0.3,2.3-3.9,0-3.6
			c-1.1,0.1-2.1,0.3-3.2,0.5c0.8-12.2,3.9-24.2,3.5-36.5c-0.1-2.3-3.7-2.3-3.6,0c0.3,9.4-1.6,18.6-2.8,27.9c-0.4,2.9-0.8,6-1,9.1
			c-2.6,0.4-5.1,0.9-7.7,1.3c-2.3,0.4-1.3,3.9,1,3.5c2.2-0.4,4.3-0.8,6.5-1.2c-0.1,3.7,0.1,7.4,1,10.9c1.5,5.7,7,8.8,12.5,8
			c6.3-0.9,9.1-8.2,10.8-13.4C358.1,232.3,354.6,231.4,353.9,233.6z"/>
		<path class="st2" d="M378,231.5c1.8-1.4,0.1-4.4-1.7-3.2c-2.6-5-7.8-4.7-11.9-1.2c-3.9,3.3-6.8,10.9-3,15.1
			c2.7,2.9,8.8-2.9,12.9-7.1c0.4,2.1,0.5,4.1,0.5,5.2c0.1,3.7,0.1,7.4,0,11c-0.1,2.3,3.5,2.3,3.6,0c0.2-6.2,0.8-13.3-0.9-19.5
			C377.8,231.7,378,231.6,378,231.5z M367.5,236.3c-1,0.8-1.9,1.5-3,2.3c-1.9,1.3-0.9-3-0.8-3.4c0.5-2.2,1.7-3.9,3.2-5.4
			c3.1-3.2,5.1-1.7,6.3,1.2C371.3,232.6,369.5,234.5,367.5,236.3z"/>
		<path class="st2" d="M398.7,217.7c-4.9,0.9-8.5,5.1-10.8,10.1c-0.1-0.4-0.1-0.9-0.2-1.3c-0.4-2.3-3.9-1.3-3.5,1
			c0.9,4.5,0.6,9.1,0.6,13.7c0,2.3,3.6,2.3,3.6,0c0.1-6.7,3.6-18.6,11.2-20C401.9,220.8,401,217.3,398.7,217.7z"/>
		<path class="st2" d="M387.8,4.2H17C8.7,27.4,3.8,56.2,3.8,87.4s4.9,60,13.1,83.3h370.8c8.3-23.3,13.1-52.1,13.1-83.3
			S396.1,27.4,387.8,4.2z"/>
		<path class="st3" d="M194.6,76.5c-13.8,0-20.6,12.4-20.6,21.9c0,9.5,6.9,21.9,23.3,21.9c4.2,0,7.6-0.8,9.6-1.5l5.5-8l-1-1.2
			c-3,2.2-6.9,3.2-10.6,3.2c-10.4,0-17.6-9.1-16.9-19.1h29.4C213.1,83,205,76.5,194.6,76.5z M184.1,89.7c-0.2-5.2,3.3-9.8,8.8-9.8
			c6.6,0,9.4,3.8,9.4,9.8H184.1z M169.6,112.2c-2.3,0-3.1-2-3.1-5.7V81.3c0-14.6,0.4-25.9,0.4-33.8h-2c-2.5,2.8-8.6,5.7-13.6,7v2
			c2.6,0.4,5.2,1.8,5.2,7.5v15c-3.5-1.6-6.9-2.5-10.3-2.5c-13,0-22.5,8.1-22.5,22.1c0,12.2,8.1,21.7,20.4,21.7
			c3.4,0,5.4-0.5,7.1-1.5l5.9-5.1c1.6,3,4.5,5.6,7.7,6.7c1.9-2.4,5.7-5.2,9.2-7.5l-1.5-1.5C171.7,111.8,171,112.2,169.6,112.2z
			 M156.7,110.7c-2.6,2.5-5.3,3.5-8.2,3.5c-8.8,0-13.9-9.9-13.9-18.3c0-6.9,3.2-15.5,11.2-15.5c8,0,10.8,4,10.8,13.7V110.7z
			 M226.3,86.9c0-4.2,2.9-6.4,7-6.4c5.5,0,8.3,2.5,9.4,7.7h3.2l0.4-9.1c-4.3-1.3-8.5-2.6-12.9-2.6c-8.3,0-16,4-16,13.4
			c0,14.4,20.8,12.8,20.8,20.2c0,3.9-3.3,6.3-7.1,6.3c-4.5,0-8.5-3.4-9.5-8.3H218l0.6,9.4c3,1.9,8.2,2.9,11.7,2.9
			c8.7,0,16.1-3.9,16.1-13.5C246.4,92.9,226.3,96.6,226.3,86.9z M116.8,104.4L94.7,47.5h-1.2l-21.5,54.4c-1.9,4.9-5.8,14.4-9.8,15.2
			v2.2c2.9,0,5.8-0.4,8.7-0.4c2.9,0,5.8,0.4,8.7,0.4v-2.2c-2.4,0-3.6-1.9-3.6-4.3c0-1.1,0.2-3.3,0.7-5.1l2.7-8.9h23.8l3.5,9.4
			c0.7,2,1.2,3.7,1.2,5.1c0,2.3-1.2,3.7-3.3,3.7v2.2c3.4,0,6.8-0.4,10.2-0.4c3.4,0,6.8,0.4,10.2,0.4v-2.2
			C121.3,116.7,120.4,113.4,116.8,104.4z M81.2,94L91,67.4L101.3,94H81.2z M265.3,111.5V72.2c0-9.3,0.3-19.2,0.4-24.7h-2
			c-2.6,2.8-10.6,5.7-14.2,6.2V56c3.2,0,5,2.4,5.2,6.6c0.3,3.8,0.8,11.4,0.8,17.3v32.8c0,2.2-0.8,4-4,4.5v2c2.9,0,5.8-0.3,8.7-0.3
			c3,0,6.1,0.3,9.1,0.3v-2C266.1,116.7,265.3,114.9,265.3,111.5z M322.6,86.9c0-4.2,2.9-6.4,7-6.4c5.5,0,8.3,2.5,9.4,7.7h3.2
			l0.4-9.1c-4.2-1.3-8.5-2.6-12.8-2.6c-8.3,0-16,4-16,13.4c0,14.4,20.8,12.8,20.8,20.2c0,3.9-3.3,6.3-7.1,6.3
			c-4.6,0-8.5-3.4-9.5-8.3h-3.7l0.6,9.4c3,1.9,8.2,2.9,11.7,2.9c8.7,0,16.1-3.9,16.1-13.5C342.7,92.9,322.6,96.6,322.6,86.9z
			 M308.1,113.2c-2.2,0-3-1.3-3-6v-3.5c0.1-5.8,0.4-11,0.4-14.7c0-10.1-7.7-12.5-16.7-12.5c-4.7,0-8.8,0.6-13,1.8v9.6h2.4
			c2.5-3.8,5.1-5.4,10-5.4c6.9,0,7.3,6.1,7.3,11.5c-1.4,0-3.1-0.3-4.7-0.3c-9.2,0-19.4,4.1-19.4,14.9c0,7.5,6.8,11.7,13.7,11.7
			c4.4,0,7.7-2.4,11.1-5c1.2,2.5,4.2,4.4,8.1,5l7.6-6.1l-1.5-1.5C309.5,113,308.6,113.2,308.1,113.2z M288.9,114.3
			c-4.2,0-7.9-3.5-7.9-8.2c0-6.5,4.9-8.9,9.5-8.9c1.8,0,3.7,0.3,4.8,0.5l0.3,14.9C294.1,113.6,292.1,114.3,288.9,114.3z"/>
	</g>
</g>
</svg>
